<svg width="1864" height="1475" viewBox="0 0 1864 1475" fill="none" xmlns="http://www.w3.org/2000/svg">
<path d="M914.114 10.1334L909.047 20.2667L903.314 16.8L897.58 13.4667L900.914 28.8C902.647 37.2 903.714 44.5334 903.18 45.0667C902.647 45.6 899.314 42.6667 895.714 38.6667C890.38 32.8 888.78 31.7334 887.847 33.3334C887.18 34.4 886.514 36 886.514 36.9334C886.514 39.3334 883.714 39.7334 876.247 38C872.38 37.0667 869.18 36.8 869.18 37.3334C869.18 37.8667 870.114 41.2 871.18 44.8C873.98 53.8667 873.714 55.6 869.58 56.9334C865.98 58.1334 866.247 58.4 879.58 69.3334C887.047 75.4667 893.18 81.3334 893.18 82.2667C893.18 83.0667 892.514 85.4667 891.58 87.3334C890.78 89.2 890.38 90.9334 890.78 91.3334C891.18 91.7334 897.58 90.6667 904.914 89.0667L918.514 86.2667L933.58 88.9334C941.714 90.4 948.647 91.4667 948.914 91.3334C949.18 91.0667 948.38 88.8 947.314 86.1334L945.314 81.3334L958.647 70.5334C965.847 64.5334 971.847 59.2 971.847 58.6667C971.847 58.1334 970.38 57.0667 968.647 56.2667C965.447 54.8 965.447 54.6667 967.047 48.4C967.98 44.9334 969.18 40.6667 969.714 39.0667C970.514 36.4 970.38 36.2667 964.914 37.4667C961.714 38.2667 958.114 39.0667 956.78 39.4667C955.047 40 953.98 38.9334 952.38 35.3334L950.38 30.4L945.447 36C942.78 39.2 939.98 42.5334 939.447 43.6C937.847 46.1334 935.847 45.7334 935.847 42.8C935.847 41.3334 937.047 34.6667 938.647 28C940.247 21.3334 941.18 15.4667 940.78 15.0667C940.38 14.6667 937.847 15.7334 935.18 17.3334C932.514 18.9334 930.114 20.1334 929.98 19.8667C929.714 19.6 927.314 14.9334 924.647 9.60004C921.98 4.40004 919.714 3.8147e-05 919.447 3.8147e-05C919.314 3.8147e-05 916.914 4.53337 914.114 10.1334ZM924.247 23.4667C925.58 25.2 927.847 26.6667 929.314 26.6667C931.314 26.6667 931.714 27.3334 931.18 29.6C928.114 43.0667 927.847 45.6 929.18 48C932.514 54.2667 938.914 54 945.047 47.4667C947.58 44.6667 948.647 44.4 950.914 45.4667C952.247 46.2667 954.78 46.6667 956.514 46.4C959.18 45.8667 959.447 46.2667 959.314 53.3334L959.18 60.8L949.58 68.5334C943.98 72.9334 939.447 77.6 939.047 79.4667C938.647 81.2 937.98 82.6667 937.847 82.6667C937.58 82.6667 933.314 81.8667 928.247 80.8C920.38 79.0667 918.114 79.0667 911.18 80.8C900.514 83.2 900.647 83.2 899.18 78.6667C898.38 76.2667 894.38 72 888.78 67.6L879.58 60.4L879.447 52.9334C879.18 45.8667 879.314 45.4667 882.114 46.1334C883.58 46.5334 885.98 46.2667 887.447 45.6C889.314 44.5334 890.914 45.0667 894.514 48.1334C899.714 52.5334 905.18 53.0667 908.514 49.7334C910.78 47.4667 910.78 42.4 908.514 31.2C907.714 27.4667 907.98 26.9334 911.047 26.1334C913.314 25.6 915.447 23.6 916.914 20.5334C918.78 16.4 919.314 16 920.514 18C921.18 19.2 922.914 21.7334 924.247 23.4667Z" fill="white"/>
<path d="M871.847 181.333C871.847 185.733 872.247 186.667 874.514 186.667C877.047 186.667 877.18 187.6 877.18 200.667C877.18 213.733 877.047 214.667 874.514 214.667C872.38 214.667 871.847 215.6 871.847 219.333V224H893.847H915.847V214.533V205.2L911.58 205.6C907.98 205.867 907.047 206.8 905.98 210.267C904.78 214.533 904.647 214.667 896.914 214.667H889.047L889.447 209.6C889.847 204.933 890.114 204.667 894.914 204.267C899.847 203.867 899.98 203.733 899.58 198.933C899.18 194.267 898.914 194 894.114 193.6C889.447 193.2 889.047 192.8 889.447 189.6C889.847 186.267 890.38 186 896.914 185.6C903.714 185.2 904.114 185.333 905.58 189.2C906.78 192.667 907.847 193.333 911.447 193.333H915.847V184.667V176H893.847H871.847V181.333Z" fill="white"/>
<path d="M941.847 177.067C941.447 177.467 941.18 179.6 941.18 181.733C941.18 184.4 941.98 185.733 943.847 186.267C946.247 186.933 946.514 188.133 946.514 200.8C946.514 213.733 946.38 214.667 943.847 214.667C941.714 214.667 941.18 215.6 941.18 219.2V223.733L949.98 224.667C975.847 227.467 989.714 221.467 991.847 206.4C993.714 192.933 987.58 181.333 977.18 178.8C971.98 177.467 942.914 176.133 941.847 177.067ZM971.847 188.667C976.78 191.2 978.514 194.4 978.514 201.2C978.514 208.667 973.18 214.4 965.847 214.933L960.514 215.333L960.114 200.933L959.714 186.667H963.847C966.114 186.667 969.714 187.6 971.847 188.667Z" fill="white"/>
<path d="M816.247 178.267C805.18 178.8 805.18 178.8 805.18 182.4C805.18 184.4 805.58 188.267 805.98 190.933C806.78 195.333 807.314 196 810.647 196C813.58 196 814.514 195.333 815.18 192C816.247 187.333 819.18 186.667 820.38 190.933C820.78 192.667 821.18 199.2 821.18 205.6C821.18 215.2 820.78 217.333 819.18 217.333C817.714 217.333 817.18 218.8 817.18 222.133V227.067L825.314 226.133C829.847 225.733 835.047 225.333 836.647 225.333C839.447 225.333 839.847 224.667 839.847 220.667C839.847 216.933 839.314 216 837.314 216C835.18 216 834.78 214.533 833.98 202.667C833.447 195.333 833.314 188.8 833.847 188C835.314 185.733 836.78 186.533 838.514 190.667C839.847 193.867 841.047 194.667 843.98 194.667C847.847 194.667 847.847 194.667 847.847 186V177.333L837.58 177.6C831.847 177.733 822.247 178.133 816.247 178.267Z" fill="white"/>
<path d="M757.847 182.133C746.914 183.067 737.714 183.867 737.58 183.867C737.314 184 737.18 186.133 737.18 188.667C737.18 192.4 737.714 193.333 739.714 193.333C742.38 193.333 742.38 193.333 744.514 213.6C745.314 220.933 745.18 221.333 742.38 221.333C739.847 221.333 739.58 221.867 740.38 225.467C740.78 227.733 741.18 230.133 741.18 230.667C741.18 231.6 752.78 231.067 760.914 229.867C764.914 229.2 765.314 228.8 764.914 224.933C764.647 221.333 763.847 220.533 760.914 220.267C757.714 219.867 757.18 219.2 757.18 215.333C757.18 211.2 757.58 210.667 761.98 209.867C766.514 209.067 766.78 208.667 765.98 204.933C765.58 202.8 765.18 200.4 765.18 199.733C765.18 199.067 763.18 198.667 760.914 198.933C757.047 199.333 756.514 198.933 756.114 195.6C755.714 192.8 756.247 192 758.114 192C759.447 192 762.647 191.6 765.18 191.2C769.447 190.533 769.98 190.8 771.447 194.533C772.914 198.533 775.714 199.6 780.114 198C782.38 197.067 781.714 179.867 779.447 180.133C778.514 180.267 768.914 181.067 757.847 182.133Z" fill="white"/>
<path d="M1057.85 183.733C1057.45 184.8 1057.18 187.067 1057.18 188.8C1057.18 191.2 1057.85 192 1059.85 192C1062.51 192 1062.65 192.533 1061.85 200.267C1060.11 218.933 1059.85 220 1057.05 220C1055.05 220 1054.51 220.933 1054.51 224.667C1054.51 229.733 1055.05 230 1070.11 231.067L1076.91 231.6L1077.45 226.933C1077.85 223.2 1077.45 222.133 1075.58 221.6C1073.18 221.067 1073.18 220 1073.98 208.133C1074.51 201.067 1075.18 194.933 1075.45 194.267C1075.71 193.733 1077.18 193.333 1078.65 193.333C1080.65 193.333 1081.18 192.4 1081.18 188.667C1081.18 186.133 1081.05 184 1080.91 183.867C1080.65 183.867 1075.58 183.333 1069.58 182.933C1060.91 182.133 1058.38 182.4 1057.85 183.733Z" fill="white"/>
<path d="M1105.18 190.933C1105.18 194.667 1105.71 196 1107.31 196C1109.18 196 1109.31 197.333 1108.65 206.267C1107.31 221.733 1106.65 224 1103.71 224C1101.71 224 1101.18 224.933 1101.18 228.533C1101.18 233.867 1101.58 234 1114.91 235.333L1123.85 236.267V231.467C1123.85 228.133 1123.31 226.667 1121.85 226.667C1120.25 226.667 1119.85 224.933 1119.85 218.8C1119.85 214.4 1120.38 210.533 1120.91 210.133C1121.45 209.733 1125.05 215.733 1128.91 223.333C1135.31 236.4 1135.98 237.2 1140.51 238.133C1143.18 238.533 1145.58 238.667 1145.85 238.4C1146.11 238.133 1147.45 229.6 1148.65 219.6C1150.65 204 1151.31 201.333 1153.31 201.333C1156.25 201.333 1158.38 193.6 1155.85 192C1155.05 191.467 1149.98 190.667 1144.78 190.133C1134.78 189.2 1133.18 189.867 1133.18 195.467C1133.18 197.2 1134.25 198.667 1135.85 199.067C1138.38 199.733 1138.51 200.4 1137.71 206.933C1137.18 210.8 1136.65 214.133 1136.51 214.267C1136.38 214.533 1133.45 208.667 1129.98 201.333C1123.05 186.933 1123.85 187.6 1110.25 186.267C1105.18 185.867 1105.18 185.867 1105.18 190.933Z" fill="white"/>
<path d="M691.18 188.133C670.914 190.533 670.514 190.667 670.514 193.333C670.514 197.2 671.98 200 673.98 200C676.247 200 676.247 199.733 673.847 212.667C670.914 228.667 670.647 229.333 668.38 229.333C666.647 229.333 666.38 230.267 667.047 233.467C667.447 235.733 667.847 238.133 667.847 238.533C667.847 239.467 687.847 237.467 688.914 236.533C690.247 235.467 687.447 228 685.714 228C682.38 228 683.58 222.667 687.314 221.333C693.314 219.067 698.247 219.733 699.314 222.933C699.847 224.667 699.58 226.133 698.647 226.4C697.847 226.667 697.18 228.933 697.18 231.467V236L704.914 235.2C718.247 233.867 718.514 233.867 718.514 228.667C718.514 225.067 717.98 224 716.114 224C714.247 224 712.114 220.667 707.98 211.067C703.047 199.6 702.647 197.867 704.38 196.533C706.647 194.933 707.047 192.267 705.714 188.8C704.78 186.533 704.78 186.533 691.18 188.133ZM691.847 204C695.447 211.067 695.18 212 690.38 212C686.247 212 686.247 211.867 687.047 206.933C687.447 204.267 687.847 201.2 687.847 200.267C687.847 197.467 689.047 198.533 691.847 204Z" fill="white"/>
<path d="M615.18 198.133C593.18 201.333 594.247 200.933 594.78 205.733C595.047 208.8 595.98 210.133 597.98 210.4C600.38 210.8 600.914 212.4 602.38 223.067C603.314 229.733 604.38 236 604.78 236.933C605.18 238 604.38 238.667 602.514 238.667C600.114 238.667 599.714 239.2 600.38 241.6C600.78 243.333 601.18 245.6 601.18 246.8C601.18 248.667 602.247 248.8 608.914 247.733C622.38 245.733 622.514 245.733 622.514 241.2C622.514 238.267 621.714 236.933 619.98 236.4C618.38 236 617.18 234.267 616.78 231.6C615.98 226.133 616.514 225.333 621.18 225.333C625.847 225.333 627.18 227.467 628.514 236.933C629.58 244.667 629.447 244.667 640.38 243.2C645.047 242.533 646.514 241.733 646.514 239.867C646.514 236.267 645.047 233.333 643.18 233.333C641.18 233.333 639.847 230.4 639.847 226C639.847 224.267 638.514 221.867 637.047 220.8L634.114 218.8L637.047 215.2C638.514 213.2 639.847 210.533 639.847 209.067C639.847 206.933 636.38 198.667 635.447 198.667C635.314 198.667 633.314 198.133 631.18 197.6C628.78 196.933 622.38 197.2 615.18 198.133ZM626.114 211.6C626.914 214 622.514 217.333 618.38 217.333C615.447 217.333 614.514 216.667 614.514 214.8C614.514 213.333 614.114 211.333 613.714 210.267C613.18 208.8 613.98 208 616.78 207.733C620.647 207.2 625.314 209.2 626.114 211.6Z" fill="white"/>
<path d="M1229.45 206.8C1211.31 216 1212.25 242.267 1231.18 250.8C1237.85 253.867 1249.31 254 1255.31 251.2C1259.71 249.067 1266.51 242.267 1266.51 240.133C1266.51 239.467 1263.45 238.667 1259.71 238.133C1254.25 237.333 1252.38 237.6 1250.25 239.467C1247.18 242.4 1239.58 242.4 1235.18 239.467C1228.91 235.333 1228.65 223.333 1234.65 218.267C1236.38 216.933 1239.71 216 1243.45 216C1249.31 216 1250.78 216.933 1256.91 224.533C1257.85 225.733 1259.98 226.667 1261.85 226.667C1263.58 226.667 1265.85 226.933 1266.91 227.333C1268.38 228 1269.18 226 1270.25 219.067C1271.05 214.133 1271.58 209.867 1271.18 209.6C1270.91 209.333 1268.25 208.8 1265.31 208.4C1261.58 207.867 1259.85 208.133 1259.85 209.2C1259.85 210 1258.11 209.467 1255.85 207.733C1249.85 203.333 1237.05 202.933 1229.45 206.8Z" fill="white"/>
<path d="M563.847 206.267C561.98 206.533 559.98 207.6 559.18 208.4C558.38 209.333 553.98 210 548.38 210C540.514 210 538.114 210.533 534.114 213.333C521.714 221.867 519.447 238.8 529.314 249.867C537.047 258.8 552.514 261.067 562.78 255.067C567.98 252 574.114 244.4 575.314 239.467L576.247 235.6L569.98 236.4C565.18 237.067 562.647 238.4 559.314 242C555.714 245.733 553.847 246.667 549.98 246.667C539.047 246.667 533.047 232.933 540.247 224.667C544.514 219.733 552.114 218.8 557.447 222.667C560.78 225.067 562.38 225.467 567.314 224.667C570.514 224.267 573.18 223.467 573.18 223.067C573.18 218.267 569.847 205.333 568.647 205.467C567.847 205.6 565.714 206 563.847 206.267Z" fill="white"/>
<path d="M1300.65 217.867C1299.31 222.533 1299.71 225.067 1301.85 225.6C1303.31 225.867 1301.98 229.067 1296.65 238.667C1292.78 245.6 1288.78 251.333 1287.71 251.333C1285.58 251.333 1284.11 254 1283.98 258.133C1283.85 260.667 1285.05 261.2 1293.85 262.667C1299.45 263.6 1304.11 264.133 1304.38 263.867C1304.65 263.6 1305.31 261.467 1305.71 259.067C1306.51 255.867 1306.25 254.8 1304.51 254.4C1302.65 254 1302.65 253.6 1304.25 251.6C1305.71 249.467 1307.05 249.2 1312.25 250C1317.71 250.8 1318.51 251.333 1318.51 254.133C1318.51 256 1317.71 257.333 1316.65 257.333C1314.51 257.333 1312.51 265.467 1314.51 266.667C1316.51 267.867 1333.18 271.067 1333.85 270.4C1334.25 270.133 1334.91 267.867 1335.31 265.6C1335.98 262.267 1335.71 261.333 1334.25 261.333C1332.78 261.333 1331.98 259.067 1331.31 252.933C1330.91 248.4 1330.11 241.6 1329.71 237.733C1328.91 231.2 1329.05 230.933 1331.71 231.6C1334.51 232.267 1334.65 232 1335.05 224.4C1335.18 222.667 1331.85 221.467 1318.25 218.667L1301.31 215.067L1300.65 217.867ZM1317.71 235.733L1318.65 242.8L1314.91 241.867C1312.91 241.333 1310.91 240.667 1310.51 240.4C1310.25 240.133 1311.31 237.2 1313.05 233.867C1314.78 230.667 1316.38 228.133 1316.51 228.267C1316.65 228.533 1317.18 231.867 1317.71 235.733Z" fill="white"/>
<path d="M1365.85 233.6C1365.05 236.8 1365.45 238.267 1367.05 239.467C1369.18 240.933 1369.18 241.6 1367.18 249.467C1362.25 268.8 1362.51 268.133 1359.98 267.333C1357.98 266.8 1357.31 267.467 1356.65 270.933C1356.25 273.2 1356.25 275.6 1356.78 276C1357.85 276.933 1374.51 281.333 1376.91 281.333C1377.58 281.333 1378.51 279.467 1379.05 277.2C1379.58 274 1379.31 272.533 1377.58 271.333C1375.45 269.733 1375.45 269.067 1377.31 261.2L1379.31 252.667L1384.65 268.533C1388.78 281.2 1390.51 284.533 1392.91 285.467C1399.98 288.133 1400.38 287.733 1405.18 268.667C1409.31 252.667 1410.11 250.667 1412.65 250.667C1414.78 250.667 1415.71 249.6 1416.38 246.4C1416.78 244.133 1417.05 242.133 1416.91 242C1416.65 241.867 1411.58 240.533 1405.58 239.067L1394.78 236.4L1393.98 239.2C1392.65 244 1393.05 246.667 1395.18 246.667C1397.58 246.667 1397.58 249.333 1395.31 256.667L1393.71 262L1389.05 248C1384.38 234.133 1384.25 234 1379.05 232.533C1366.51 228.933 1366.78 228.933 1365.85 233.6Z" fill="white"/>
<path d="M428.514 235.2C413.98 238.533 405.18 241.467 405.18 243.067C405.314 247.867 407.047 250.8 409.314 250.267C411.98 249.6 411.714 248.933 416.514 267.867C418.514 275.867 418.514 276.533 416.514 277.733C414.914 278.533 414.514 279.867 415.314 283.067C415.714 285.467 416.247 287.467 416.514 287.733C417.18 288.533 447.18 279.867 450.914 277.733C461.314 271.6 464.514 257.333 458.114 245.333C452.914 235.467 442.78 232 428.514 235.2ZM439.047 245.333C443.58 246.933 447.847 254.133 447.847 259.733C447.847 262.933 446.647 265.333 443.98 268C440.38 271.733 433.847 274.4 432.38 272.933C430.914 271.467 425.314 247.333 426.247 246.533C427.18 245.6 431.047 244.4 434.114 244.133C434.914 244.133 437.18 244.533 439.047 245.333Z" fill="white"/>
<path d="M368.914 250.933C363.847 252.533 359.847 254.133 359.847 254.8C359.847 258.267 362.78 262.667 365.047 262.667C366.914 262.667 368.114 264.4 369.714 268.933C370.914 272.267 371.58 275.333 371.447 275.6C371.18 275.733 367.047 272.533 362.38 268.4C357.714 264.267 352.78 260 351.58 258.933C349.58 257.2 348.114 257.333 340.647 259.333C332.247 261.6 331.98 261.867 332.78 265.2C333.847 270.133 334.38 270.667 337.18 270.667C339.18 270.667 340.38 273.067 343.18 282.267C345.047 288.8 346.914 294.667 347.18 295.6C347.447 296.533 346.647 297.6 345.18 298C343.047 298.667 342.914 299.333 344.114 303.067C344.914 305.467 345.714 307.467 345.847 307.6C346.38 308.4 366.647 301.733 366.78 300.933C366.78 300.4 366.514 298.133 366.114 296.133C365.447 293.067 364.78 292.4 362.78 292.933C360.647 293.467 359.714 292.133 357.314 285.2C355.847 280.667 354.647 276.8 354.914 276.533C355.047 276.4 360.514 281.067 367.047 286.8C378.914 297.467 380.914 298.4 387.047 296.133L390.247 294.8L387.847 286.4C379.98 259.6 379.847 258.533 382.38 257.6C384.247 256.8 384.514 255.867 383.58 252.267C382.247 247.333 381.447 247.2 368.914 250.933Z" fill="white"/>
<path d="M1445.45 254.933C1444.65 258.267 1444.78 259.467 1446.11 259.733C1448.91 260.4 1448.25 262 1440.25 274C1435.58 281.067 1431.85 285.333 1430.38 285.333C1428.91 285.333 1427.71 286.8 1427.18 289.467C1426.65 291.733 1426.51 293.733 1426.91 294.133C1427.98 295.2 1445.71 299.867 1446.65 299.2C1448.51 298.133 1448.91 291.467 1447.05 290C1445.58 288.933 1445.58 288.267 1447.05 286.4C1448.65 284.267 1449.45 284.267 1454.65 285.733C1459.05 287.067 1460.65 288.133 1460.91 290.4C1461.18 292.4 1460.65 293.333 1459.31 293.333C1458.11 293.333 1457.18 293.467 1457.18 293.733C1457.18 293.867 1456.65 295.867 1455.98 298.267L1454.78 302.533L1463.85 305.2C1468.78 306.8 1473.58 308 1474.25 308C1475.05 308 1476.25 306.133 1477.05 303.867C1478.91 298.533 1478.91 298.667 1476.51 298.667C1474.91 298.667 1474.51 296.4 1474.25 286.667C1474.11 280 1473.98 273.333 1473.98 271.6C1473.85 269.6 1474.51 268.8 1475.98 269.067C1477.45 269.2 1478.78 267.867 1479.71 265.2C1480.51 262.8 1480.91 260.667 1480.65 260.267C1479.98 259.6 1449.18 250.667 1447.58 250.667C1447.05 250.667 1446.11 252.667 1445.45 254.933ZM1462.51 273.733C1462.51 278.533 1462.38 278.667 1458.91 277.867C1453.05 276.533 1453.05 276.133 1456.78 270.533C1460.78 264.533 1462.51 265.467 1462.51 273.733Z" fill="white"/>
<path d="M1509.58 273.867C1508.38 277.733 1508.51 278.533 1510.51 279.6C1512.65 280.533 1512.51 281.6 1508.78 293.6C1505.18 305.067 1504.38 306.667 1501.71 306.667C1499.45 306.667 1498.51 307.6 1497.85 310.8C1497.31 313.067 1497.18 315.067 1497.45 315.2C1498.65 316.4 1523.98 324 1528.65 324.8C1538.11 326.267 1547.71 320.8 1551.98 311.333C1556.78 300.933 1554.25 288.133 1546.38 282.533C1543.58 280.667 1513.58 269.333 1511.18 269.333C1511.05 269.333 1510.38 271.333 1509.58 273.867ZM1534.65 288.4C1540.78 292.533 1542.25 297.2 1539.85 304.4C1537.31 311.733 1531.05 315.067 1523.45 313.333C1520.65 312.8 1518.11 312 1517.71 311.733C1517.45 311.467 1519.18 305.333 1521.45 298.267C1526.25 284 1527.05 283.333 1534.65 288.4Z" fill="white"/>
<path d="M283.58 277.067C275.714 279.733 269.047 282.4 268.647 282.8C268.114 283.2 268.514 285.467 269.314 287.867C270.514 291.2 271.314 291.867 273.314 291.333C275.714 290.533 275.847 291.333 275.847 305.2C275.847 316.933 275.447 320.133 273.847 321.067C272.114 321.867 272.114 322.933 273.314 326.4C274.114 328.8 275.18 330.667 275.714 330.667C276.647 330.667 287.58 327.067 294.114 324.667C295.314 324.267 295.314 322.933 294.247 319.333C293.047 315.6 292.247 314.8 290.247 315.467C288.38 316 287.847 315.467 287.847 312.933C287.847 310.133 288.914 309.2 294.114 307.467C299.447 305.6 300.647 305.6 302.247 307.2C303.714 308.533 303.714 309.6 302.514 311.467C300.647 314.533 302.914 322 305.58 320.933C306.38 320.667 310.647 319.2 315.047 317.867C319.314 316.533 323.047 314.8 323.447 314C324.38 311.333 321.447 305.333 319.447 306.133C318.247 306.533 314.647 302.8 309.314 295.333C300.914 283.6 300.114 281.867 302.647 281.067C305.18 280.267 302.78 272 300.114 272.133C298.914 272.133 291.447 274.4 283.58 277.067ZM292.38 292.133C294.38 295.067 295.98 297.733 295.714 298C295.447 298.267 293.58 298.8 291.714 299.333C288.247 300.133 288.114 300 287.714 293.467C287.447 289.733 287.447 286.667 287.847 286.667C288.247 286.667 290.247 289.2 292.38 292.133Z" fill="white"/>
<path d="M227.18 296.934C215.58 301.067 215.047 301.6 217.047 306.4C218.247 309.334 219.447 310.134 221.314 309.734C223.18 309.2 224.114 310 225.18 312.667C225.98 314.667 226.38 316.534 226.247 316.667C225.18 317.334 214.247 321.334 213.314 321.334C212.647 321.334 211.714 319.734 211.314 317.867C210.647 315.467 211.047 313.867 212.514 312.8C214.514 311.467 214.514 310.667 212.914 307.067L211.18 302.8L200.514 306.934C194.647 309.2 189.714 311.2 189.447 311.334C189.314 311.467 189.847 313.467 190.647 315.867C191.714 318.934 192.914 320 194.78 319.734C197.047 319.334 198.247 321.334 202.514 332.267C206.514 342.534 207.18 345.334 205.714 345.867C203.447 346.8 203.314 350.8 205.58 353.734C207.047 355.867 207.847 355.734 216.514 352.534C221.714 350.534 226.247 348.534 226.914 348C227.447 347.6 227.18 345.334 226.514 343.067C225.314 340 224.38 339.067 222.514 339.6C220.647 340.134 219.58 339.334 218.514 336.667C216.514 331.6 216.78 330.8 220.514 329.334C229.047 326.134 230.114 326.267 231.714 330.8C232.914 334.4 232.78 335.334 230.914 336.667C229.047 338.134 228.914 338.8 230.38 342.4L232.114 346.534L242.247 342.8C247.847 340.667 252.647 338.4 252.78 337.734C253.047 336.934 252.647 334.8 251.98 332.934C251.047 330.534 249.98 329.734 248.247 330.134C246.247 330.667 245.047 328.667 241.047 317.734C236.647 305.734 236.38 304.534 238.514 303.6C240.514 302.534 240.647 301.734 239.447 297.867C238.647 295.334 237.714 293.334 237.314 293.467C236.914 293.467 232.38 295.067 227.18 296.934Z" fill="white"/>
<path d="M1588.11 300.267C1586.78 304 1586.78 304.933 1588.51 306.133C1590.11 307.333 1589.18 309.333 1581.71 318.8C1575.98 326 1572.11 329.867 1570.65 329.733C1569.05 329.467 1567.85 330.8 1566.91 334L1565.45 338.533L1574.78 341.867C1579.85 343.733 1584.51 345.333 1585.18 345.333C1587.18 345.333 1589.45 336.933 1587.71 335.867C1586.78 335.333 1586.51 333.867 1587.05 332.667C1587.58 331.067 1588.78 330.667 1591.18 331.2C1599.05 333.2 1601.18 334.533 1601.18 337.867C1601.18 340.267 1600.65 341.067 1599.18 340.533C1597.18 339.733 1593.98 345.6 1594.78 348.267C1595.05 349.067 1599.58 351.2 1604.78 353.333L1614.38 357.067L1615.98 352.4C1617.18 348.667 1617.18 347.467 1615.85 346.667C1614.65 345.867 1614.25 342.133 1614.38 333.867C1614.78 319.6 1615.45 316 1617.85 316.8C1619.71 317.6 1622.51 313.6 1622.51 310.267C1622.51 309.067 1617.31 306.4 1608.25 302.933C1600.25 300 1592.91 297.2 1591.85 296.8C1590.38 296.133 1589.31 297.2 1588.11 300.267ZM1603.18 320.8C1602.51 324.8 1601.98 325.333 1599.45 324.533C1594.51 323.067 1594.38 322.133 1598.91 316.667C1603.58 310.933 1604.91 312.133 1603.18 320.8Z" fill="white"/>
<path d="M165.447 348.667C158.647 351.734 158.514 351.867 160.114 355.6C162.647 361.6 163.18 361.734 170.647 358.534C179.98 354.667 180.114 354.534 178.38 349.6C176.647 344.534 174.914 344.4 165.447 348.667Z" fill="white"/>
<path d="M1641.45 348.667C1639.05 353.867 1639.45 354.533 1645.58 357.2C1656.65 362 1656.78 361.867 1658.51 356.667C1659.45 354 1659.85 351.6 1659.58 351.333C1658.91 350.667 1645.18 345.333 1643.98 345.333C1643.45 345.333 1642.25 346.8 1641.45 348.667Z" fill="white"/>
<path d="M303.18 400.134C255.98 409.467 219.314 445.067 209.98 490.934C206.914 505.6 207.18 526.534 210.647 543.067C216.38 570.8 210.38 581.467 175.314 605.734C109.98 651.067 63.3136 703.333 33.1803 764.667C12.7803 806 2.1136 849.067 0.246929 896.667C-2.6864 978.133 27.7136 1040.8 84.5136 1070.27C110.38 1083.6 135.447 1089.33 171.847 1090.27C201.447 1091.07 213.447 1089.33 239.18 1080.8C276.78 1068.27 326.38 1041.73 345.98 1023.73C349.447 1020.53 352.514 1018.53 352.78 1019.33C354.514 1024.13 365.58 1042.53 370.78 1049.2C389.714 1073.33 425.58 1082.4 463.98 1072.67C475.447 1069.73 499.847 1057.6 510.514 1049.47C515.314 1045.87 525.314 1036.67 532.78 1028.93C540.38 1021.33 548.78 1013.87 551.447 1012.53C555.58 1010.53 560.114 1010.13 576.514 1010C603.314 1009.73 620.78 1005.07 641.18 992.667C645.447 990.134 649.314 988 649.847 988C650.38 988 650.38 996.267 649.847 1006.27C648.38 1035.47 652.647 1050.4 666.114 1062.67C676.114 1071.73 685.047 1074.93 702.78 1075.73C732.514 1076.93 755.447 1066.93 784.647 1039.87C795.714 1029.6 797.98 1028.4 801.447 1031.47C802.78 1032.8 806.114 1038.27 808.514 1043.73C811.047 1049.07 814.78 1055.73 817.047 1058.4C822.114 1064.8 833.18 1071.33 843.18 1074C853.314 1076.53 875.447 1076.67 885.847 1074C898.914 1070.67 916.647 1060.93 935.847 1046.67C945.714 1039.33 953.847 1033.33 953.847 1033.33C953.98 1033.33 952.647 1037.6 950.78 1042.93C947.047 1054 947.58 1059.33 952.647 1064.13C955.98 1067.2 956.78 1067.33 975.58 1067.33C993.447 1067.33 995.714 1067.07 1001.58 1064.13C1006.11 1061.87 1009.45 1058.93 1012.65 1054.13C1017.05 1047.47 1052.78 961.2 1082.78 884.667C1090.78 864.134 1099.85 842.667 1102.78 837.067C1112.11 819.067 1130.65 801.467 1152.25 790C1172.25 779.467 1188.11 776.934 1195.58 783.333C1200.65 787.6 1201.71 791.867 1199.71 801.2C1198.91 805.333 1186.78 837.467 1172.91 872.667C1133.98 971.067 1131.18 980.667 1131.18 1015.33C1131.18 1042.13 1133.18 1048.27 1145.71 1060.8C1157.98 1073.07 1164.65 1075.2 1189.18 1075.33C1206.11 1075.33 1209.71 1074.93 1217.85 1072.13C1241.18 1064.27 1261.45 1050.27 1285.45 1025.47L1301.18 1009.33V1015.07C1301.31 1034 1307.45 1051.73 1317.18 1061.07C1327.85 1071.6 1341.45 1076 1363.18 1076C1382.11 1076 1396.25 1072.67 1413.98 1064C1431.58 1055.47 1446.11 1044.53 1466.65 1024.4L1483.45 1007.87L1484.38 1020.8C1486.11 1044 1492.91 1058 1506.91 1067.33C1515.85 1073.2 1526.78 1076 1540.91 1076C1560.38 1076 1574.91 1070.53 1595.45 1055.87C1601.45 1051.6 1607.05 1048 1607.85 1048C1610.38 1048 1608.25 1056.93 1603.58 1065.73C1601.18 1070 1595.85 1076.8 1591.31 1081.07C1584.11 1087.73 1579.98 1090 1557.85 1099.87C1508.91 1121.47 1491.18 1131.73 1476.11 1146.93C1456.51 1166.8 1448.51 1187.47 1451.98 1209.47C1457.71 1247.07 1496.51 1266.8 1541.85 1255.2C1579.71 1245.47 1614.51 1206.53 1639.85 1145.33C1658.38 1100.8 1661.71 1096.8 1696.25 1079.07C1721.45 1066.13 1749.45 1048.13 1769.05 1032.4C1796.38 1010.27 1826.91 976.8 1847.71 945.867C1859.45 928.667 1862.65 920.134 1863.45 904.534C1864.11 892.534 1864.11 892.4 1860.51 889.6C1856.11 886.134 1848.38 885.733 1844.11 888.8C1842.38 890 1834.11 901.333 1825.71 914C1804.25 946.534 1790.91 963.2 1769.58 984.133C1740.51 1012.67 1701.71 1040 1690.38 1040C1686.78 1040 1686.51 1039.6 1686.51 1035.2C1686.51 1032 1698.38 1001.2 1721.98 942.8C1783.85 789.867 1797.05 756.8 1798.78 750.4C1800.91 742.267 1799.31 737.6 1793.18 734.133C1789.18 731.734 1786.38 731.333 1771.71 731.333C1755.85 731.467 1754.51 731.6 1747.05 735.333C1741.31 738.267 1738.11 741.067 1734.91 745.6C1732.65 749.067 1718.65 782.4 1703.85 819.6C1676.11 889.467 1662.11 920.267 1647.71 943.333C1634.91 963.867 1617.85 985.867 1602.65 1001.73C1587.18 1017.73 1575.85 1024.67 1562.91 1026.27C1556.51 1026.93 1555.71 1026.8 1551.98 1022.93C1548.38 1019.47 1547.85 1017.87 1547.85 1011.6C1547.85 994.267 1549.05 991.067 1620.51 812C1633.58 779.467 1644.51 750.267 1644.91 747.2C1646.25 734.8 1640.11 731.333 1617.05 731.467C1601.45 731.467 1599.71 731.734 1592.65 735.2C1586.78 738.133 1583.98 740.534 1580.38 746C1577.58 750.134 1565.45 778.534 1551.71 812.934C1526.11 877.067 1510.51 910.4 1496.78 930.934C1473.45 965.733 1437.05 1006.27 1416.91 1019.6C1393.18 1035.33 1372.38 1037.47 1367.05 1024.53C1365.31 1020.53 1365.18 1017.47 1366.38 1006.13C1367.18 998.8 1368.38 990.8 1368.91 988.667C1373.71 972.667 1465.05 745.067 1468.65 740.4C1473.31 734.267 1480.65 732.133 1502.11 730.934C1520.51 729.867 1521.31 729.734 1525.98 725.867C1528.65 723.734 1531.98 719.867 1533.31 717.333C1536.51 711.467 1536.65 701.067 1533.71 698.534C1532.38 697.467 1525.71 696.534 1514.78 696C1497.18 695.2 1492.65 693.867 1491.18 689.334C1489.85 685.067 1491.45 680 1503.31 649.867C1515.18 620 1516.25 614.667 1511.85 608.934C1508.25 604.4 1501.71 602.667 1488.38 602.667C1467.18 602.667 1456.51 606.8 1449.05 618C1447.05 620.934 1440.38 636.267 1433.98 652C1427.58 667.734 1421.05 682.8 1419.31 685.467C1413.98 693.334 1408.65 695.067 1385.85 696C1371.31 696.667 1364.65 697.467 1361.71 699.067C1351.18 704.534 1344.51 720.267 1349.71 727.467C1351.45 729.734 1353.85 730.133 1370.38 730.8C1387.71 731.467 1389.45 731.734 1392.51 734.667C1394.78 736.8 1395.85 739.2 1395.85 742.267C1395.85 745.067 1386.78 769.467 1372.38 805.067C1342.91 878 1336.38 893.333 1327.05 910C1319.18 924 1296.91 956 1280.11 977.333C1267.05 993.867 1243.85 1017.07 1233.45 1023.73C1222.65 1030.8 1209.98 1034.27 1203.31 1032C1196.11 1029.6 1194.51 1026.4 1194.51 1014C1194.51 993.067 1195.58 989.867 1236.91 885.333C1261.71 822.667 1266.25 809.2 1269.98 787.867C1272.78 771.867 1271.71 760.8 1266.65 750C1257.31 730.4 1240.25 721.333 1215.85 723.2C1193.85 724.667 1175.31 731.867 1151.18 748.134C1131.18 761.6 1126.65 761.867 1106.65 750C1099.85 745.867 1091.58 741.867 1088.25 740.934C1083.05 739.6 1081.71 739.734 1077.45 742C1074.78 743.467 1071.31 746.667 1069.71 748.934C1068.11 751.333 1061.31 767.2 1054.51 784.267C1023.31 862.4 1000.78 911.733 987.047 932C943.58 996.267 917.847 1021.87 887.58 1031.47C878.514 1034.27 874.647 1033.07 870.514 1026.4C866.514 1019.87 867.18 1010.27 873.047 986.4C877.58 968.134 883.447 952.4 920.514 860C943.847 802 963.314 752.4 963.847 749.867C965.447 742.934 963.18 736.4 958.114 733.734C952.647 730.667 926.38 730.4 916.914 733.2C908.914 735.467 901.447 741.867 896.914 750.134C893.847 756 877.98 795.333 851.047 863.867C829.447 919.2 800.38 967.6 769.714 1000C756.78 1013.47 748.247 1019.6 736.247 1024C722.647 1028.93 714.38 1026 712.514 1015.47C711.98 1012.93 713.047 1004.93 715.18 995.2C718.114 981.867 725.98 960.934 763.847 866C788.647 803.6 809.314 750.667 809.847 748.267C811.18 741.467 808.514 736.534 801.314 733.067C796.247 730.534 793.047 730 782.514 730C771.58 730 768.78 730.534 762.247 733.6C753.58 737.6 745.847 745.067 740.914 754.267C738.914 757.734 726.247 788.4 712.647 822.4C699.047 856.4 684.514 890.667 680.38 898.667C671.18 916.534 659.18 931.6 643.98 944.8C624.78 961.6 598.514 972.4 587.98 968.133C579.98 964.8 580.514 961.333 593.98 924.4C612.514 873.467 617.714 850.134 617.714 817.333C617.714 802 617.047 792.4 615.447 785.6C608.78 755.867 588.114 733.6 559.714 725.867C548.247 722.667 519.314 722.667 504.514 725.867C471.847 732.934 443.714 752.4 419.714 784.667C405.847 803.333 394.914 822 371.98 866.4C348.514 911.733 340.114 926.534 327.714 944.667C299.58 985.733 269.714 1008.27 229.714 1018.8C219.18 1021.6 215.047 1022 191.847 1022C167.314 1021.87 165.18 1021.73 153.847 1018.13C136.514 1012.8 127.18 1007.47 115.714 996C107.58 987.867 104.38 983.6 99.4469 973.333C88.6469 951.333 82.9136 925.867 81.5803 894C78.6469 825.067 106.514 759.334 163.847 699.467C184.38 678.134 216.647 651.467 236.514 639.334C243.58 635.067 245.314 634.534 251.447 635.067C257.314 635.467 260.514 636.934 272.78 645.067C304.78 666.134 335.18 676.667 374.38 680C401.447 682.4 429.714 678.934 456.78 670C498.914 656 529.447 630.667 539.847 601.067C544.114 588.8 544.914 568.667 541.447 557.867C531.98 527.734 501.447 509.2 457.58 506.8C401.314 503.867 345.447 514.8 292.114 539.334C274.247 547.467 267.98 547.867 261.847 541.067C252.647 531.067 252.247 510 260.78 490.667C267.714 474.934 282.514 460.534 297.58 454.8C301.447 453.467 311.58 451.334 319.98 450.134C338.78 447.467 348.247 443.334 352.914 435.334C359.314 424.267 354.114 410.534 340.914 403.334C335.18 400.134 332.247 399.6 321.98 399.2C315.314 398.934 306.914 399.334 303.18 400.134ZM448.514 554.8C479.714 559.067 491.18 569.334 483.714 586.534C472.38 612.934 419.58 632 371.58 626.934C352.247 624.934 341.714 622.267 328.247 615.867C317.447 610.8 301.18 597.6 301.18 594C301.18 593.2 308.514 588.8 317.58 584.267C366.247 560 412.114 549.734 448.514 554.8ZM542.114 771.467C563.314 781.6 562.38 824.934 539.447 890C534.514 904 531.18 908 521.18 911.333C505.047 916.534 496.514 922.534 491.447 931.867C486.647 940.534 485.58 951.333 488.38 963.067C493.447 984.8 490.247 995.467 473.98 1010.13C449.447 1032.13 433.18 1036 419.98 1022.8C406.38 1009.2 405.98 984 418.78 937.467C429.98 896.134 450.78 849.467 471.98 817.333C496.647 780 523.314 762.534 542.114 771.467ZM1567.98 1138.67C1572.38 1141.07 1571.05 1147.33 1563.05 1162.8C1550.78 1186.4 1536.91 1200.93 1519.18 1208.67C1512.11 1211.87 1510.91 1212 1504.91 1210.67C1497.71 1208.93 1491.31 1203.47 1489.98 1198C1485.85 1181.87 1511.71 1158 1551.05 1141.87C1562.91 1136.93 1564.11 1136.67 1567.98 1138.67Z" fill="white"/>
<path d="M761.447 419.334C732.914 425.734 716.247 448 719.18 475.467C720.914 492.267 730.38 505.2 746.514 512.934C752.914 516.133 755.447 516.533 766.514 516.533C779.98 516.533 789.047 513.734 795.58 507.734C800.114 503.333 799.58 495.333 794.38 488.934C789.58 483.067 786.647 482.8 775.314 486.8C767.047 489.6 761.714 489.333 756.114 485.734C748.78 481.067 745.714 469.467 749.714 461.467C755.314 450.8 768.38 445.6 785.18 447.2C794.514 448.133 859.047 460.667 861.18 462C861.98 462.4 862.514 463.6 862.514 464.534C862.514 467.2 817.714 577.867 811.18 591.467C799.98 614.667 786.914 627.734 771.58 630.934C744.114 636.667 724.38 610.267 738.647 587.067C741.58 582.4 749.314 577.334 757.314 574.8C765.18 572.267 768.38 567.734 768.38 559.067C768.38 552.534 767.98 551.334 764.514 548.4C761.18 545.467 759.847 545.067 753.447 545.734C743.58 546.8 730.514 553.2 721.847 561.467C698.247 583.734 698.247 623.6 721.847 645.2C735.047 657.2 749.847 662.133 769.714 661.067C789.58 659.867 806.38 651.333 822.38 633.867C833.58 621.6 841.847 604.267 871.18 531.334C884.247 499.067 895.714 471.867 896.514 470.8C897.98 469.333 901.047 469.333 913.047 470.267C921.18 471.067 928.114 471.867 928.514 472.267C928.914 472.534 915.58 506.4 899.047 547.467C861.18 640.934 860.914 641.733 862.514 645.867C864.114 650.267 872.38 652.533 881.714 651.2C889.714 650.133 895.18 645.2 898.78 635.867C909.18 608.4 932.38 553.334 935.447 548.934C937.447 546 941.847 541.6 945.18 539.067C951.58 534.4 964.114 529.867 966.647 531.467C968.914 532.8 967.58 537.2 954.514 570.534C947.847 587.734 941.447 605.6 940.38 610.534C933.98 640.667 943.98 655.867 969.047 654.4C982.647 653.733 993.714 647.733 1007.45 633.733C1018.38 622.667 1018.38 622.533 1019.31 626.267C1023.45 643.6 1037.45 653.333 1059.85 654.4C1080.25 655.333 1095.98 650.267 1115.18 636.667C1133.05 624 1159.85 589.2 1159.85 578.667C1159.85 574.534 1153.98 569.334 1149.45 569.334C1145.05 569.334 1143.05 571.334 1133.85 585.334C1125.58 597.867 1108.11 615.2 1097.98 621.2C1077.98 633.067 1058.25 633.733 1052.65 622.8C1049.98 617.867 1049.85 602.8 1052.25 599.467C1053.58 597.6 1056.51 597.067 1067.58 596.667C1089.85 595.867 1101.98 591.2 1113.31 579.067C1133.45 557.6 1138.11 525.2 1123.31 510.4C1116.65 503.867 1110.91 502 1097.85 502C1087.18 502 1084.91 502.4 1077.18 506.133C1055.85 516.267 1040.65 534.534 1028.65 564.267C1018.51 589.467 994.647 621.067 980.114 628.534C971.98 632.8 969.847 630.667 971.847 620.267C973.314 612.4 974.247 609.867 988.38 574.4C1005.98 530.267 1007.45 519.067 996.38 508.4C992.647 504.8 988.914 502.534 985.714 501.867C977.714 500.4 966.514 502.267 957.98 506.534C953.58 508.667 949.847 510.4 949.714 510.267C949.447 510.133 953.314 500.4 957.98 488.8C966.247 468.4 966.914 467.2 974.78 459.867C982.247 452.8 982.78 451.867 981.98 447.867C980.914 442.133 979.314 440.534 972.514 437.867C967.047 435.867 966.247 435.867 957.58 438.4C936.38 444.8 923.58 443.734 851.847 429.2C793.58 417.334 777.714 415.6 761.447 419.334ZM1100.51 532C1101.45 533.6 1096.65 550.534 1093.71 556.267C1087.98 567.2 1077.31 574.667 1067.18 574.667C1059.58 574.667 1059.58 573.6 1066.65 559.867C1072.51 548.534 1081.85 537.2 1088.51 533.067C1092.91 530.4 1099.18 529.867 1100.51 532Z" fill="white"/>
<path d="M439.98 1169.6C433.047 1173.07 427.314 1181.33 425.314 1190.8C424.514 1194.53 423.847 1212.93 423.847 1232.67C423.847 1264.67 424.114 1268.53 426.514 1275.07C429.314 1282.67 434.914 1288.8 442.514 1292.8C449.58 1296.53 469.314 1296.27 476.78 1292.27C488.247 1286.27 494.514 1274 494.514 1257.73V1249.33H483.98H473.58L472.78 1256.93C472.514 1261.2 471.447 1266.27 470.514 1268.27C467.047 1275.87 454.914 1276.53 451.18 1269.33C449.58 1266.13 449.18 1258.8 449.18 1230.13C449.18 1195.33 449.18 1194.8 452.247 1191.47C455.447 1187.87 458.647 1186.93 463.98 1188.4C468.114 1189.47 470.38 1193.47 471.58 1202L472.514 1208.67H482.514H492.514V1188.67V1168.67L484.114 1168.27C479.18 1168 474.914 1168.53 473.847 1169.33C472.514 1170.4 471.047 1170.27 467.98 1168.8C461.847 1165.6 447.18 1166 439.98 1169.6Z" fill="white"/>
<path d="M545.847 1168.67C539.18 1170.93 530.247 1180.53 528.114 1187.6C525.714 1195.47 525.98 1268.27 528.38 1275.07C531.18 1282.67 536.514 1288.8 543.447 1292.13C548.78 1294.8 551.847 1295.33 562.514 1295.33C573.98 1295.33 575.847 1294.93 582.114 1291.47C590.114 1287.07 595.047 1280.67 597.18 1272C598.114 1268 598.514 1252.67 598.247 1227.33C597.847 1190.4 597.714 1188.4 594.914 1183.07C591.314 1176.27 583.98 1170.27 577.314 1168.13C570.38 1166.13 552.38 1166.4 545.847 1168.67ZM566.247 1188.13C572.914 1190.4 573.314 1193.2 572.914 1233.2L572.514 1269.6L569.314 1272.13C565.047 1275.6 559.047 1275.33 555.18 1271.33L551.847 1268.13V1231.47C551.847 1211.33 552.247 1193.87 552.647 1192.67C553.447 1190.8 556.647 1188.8 561.98 1186.67C562.114 1186.67 563.98 1187.33 566.247 1188.13Z" fill="white"/>
<path d="M647.714 1170.4C639.047 1174.93 633.847 1182.53 631.714 1193.87C630.78 1198.8 630.514 1214.93 630.78 1235.87C631.18 1269.47 631.18 1270.13 634.647 1277.47C636.78 1281.87 640.247 1286.53 642.914 1288.53C657.047 1299.33 681.98 1298.27 693.98 1286.13C702.914 1277.33 703.847 1272.13 703.847 1231.87C703.847 1193.87 702.914 1186.8 697.047 1178.67C690.914 1170.13 682.114 1166.67 667.047 1166.67C656.247 1166.67 653.98 1167.07 647.714 1170.4ZM675.447 1190.93C677.58 1193.33 677.847 1197.07 678.247 1228.67C678.647 1269.33 678.114 1272.53 669.98 1274.13C663.714 1275.2 659.047 1272.27 657.18 1265.73C656.114 1262.4 655.847 1249.33 656.114 1228C656.514 1199.6 656.78 1194.67 658.78 1191.73C662.38 1186.4 670.914 1186 675.447 1190.93Z" fill="white"/>
<path d="M1223.18 1168.53C1216.11 1171.6 1210.65 1178.67 1207.71 1188.13C1205.18 1196.4 1205.05 1200 1205.45 1234.27C1205.98 1275.47 1206.11 1276.4 1215.18 1286.53C1223.85 1296 1238.91 1298.53 1251.71 1292.67C1258.25 1289.6 1259.18 1289.47 1261.18 1291.33C1262.51 1292.53 1265.85 1293.33 1269.58 1293.33H1275.85V1262V1230.67H1259.85H1243.85V1240.67V1250.67H1249.18H1254.51V1256.93C1254.51 1260.53 1253.45 1265.47 1252.11 1268C1247.71 1276.8 1235.31 1276.4 1231.85 1267.2C1231.05 1265.33 1230.51 1248.67 1230.51 1230.27C1230.51 1199.07 1230.78 1196.4 1233.18 1192.27C1235.71 1188.13 1237.85 1187.33 1244.51 1188C1249.18 1188.4 1252.11 1192.53 1252.91 1200.13L1253.85 1207.33L1263.58 1207.73L1273.18 1208.13V1188V1168H1264.51C1258.11 1168 1255.58 1168.53 1255.05 1169.87C1254.38 1171.47 1253.58 1171.33 1250.11 1169.2C1245.05 1166.13 1229.45 1165.73 1223.18 1168.53Z" fill="white"/>
<path d="M735.58 1168.8C734.914 1169.33 734.514 1173.87 734.514 1178.93V1188H739.18H743.847V1230.67V1273.33H739.18H734.514V1283.33V1293.33L756.914 1293.07L779.18 1292.67V1283.33V1274L774.247 1273.6L769.18 1273.2V1258.8V1244.4L783.047 1243.73C800.38 1242.93 807.18 1239.73 812.114 1229.73C814.914 1224 815.18 1221.47 815.18 1206C815.18 1190.67 814.78 1188 812.247 1183.07C809.047 1177.07 804.514 1173.47 797.18 1170.67C791.98 1168.67 737.18 1167.07 735.58 1168.8ZM785.58 1189.47C790.114 1191.87 790.514 1193.2 790.514 1206.13C790.514 1221.73 789.58 1223.07 777.98 1223.73L769.18 1224.27V1206.13V1188H775.98C779.714 1188 783.98 1188.67 785.58 1189.47Z" fill="white"/>
<path d="M846.514 1178V1188H851.18H855.847V1230.67V1273.33H851.18H846.514V1283.33V1293.33H887.18H927.847V1272.67V1252H917.18H906.514V1262.67V1273.33H893.847H881.18V1256V1238.8L893.58 1238.4L905.847 1238V1227.33V1216.67L893.58 1216.27L881.18 1215.87V1202V1188H893.847H906.514V1197.33V1206.8L916.914 1206.4L927.18 1206V1187.33V1168.67L886.914 1168.27L846.514 1168V1178Z" fill="white"/>
<path d="M960.914 1168.8C960.247 1169.33 959.847 1173.87 959.847 1178.8V1187.87L964.914 1188.27L969.847 1188.67L970.247 1230.93L970.514 1273.2L965.58 1273.6L960.514 1274L960.114 1283.73L959.714 1293.33L982.114 1293.07L1004.51 1292.67V1283.33V1274L999.447 1273.6L994.38 1273.2L994.78 1255.6L995.18 1238L1004.11 1238.13C1009.18 1238.13 1013.85 1238.93 1015.05 1239.87C1016.78 1241.33 1017.18 1246.13 1017.45 1267.2L1017.85 1292.67L1034.91 1293.07L1051.85 1293.47V1283.33V1273.33H1047.18H1042.51L1042.38 1258.27C1042.38 1240.93 1040.78 1235.2 1035.05 1231.33L1030.78 1228.4L1034.78 1225.2C1039.85 1221.07 1042.38 1213.47 1042.38 1202.67C1042.51 1185.2 1038.38 1176.27 1027.98 1171.6C1022.51 1169.07 1018.78 1168.67 991.847 1168.27C975.314 1168 961.447 1168.27 960.914 1168.8ZM1014.25 1190.13C1016.91 1191.87 1017.18 1193.33 1017.18 1202.67C1017.18 1210.27 1016.65 1213.73 1015.18 1215.2C1012.65 1217.6 1006.11 1219.07 999.714 1218.4L995.18 1218L994.78 1204.8C994.647 1197.47 994.78 1190.67 995.047 1189.73C996.114 1187.2 1010.38 1187.47 1014.25 1190.13Z" fill="white"/>
<path d="M1102.11 1168.8C1101.58 1169.33 1101.18 1173.87 1101.18 1178.93V1188H1105.85C1108.38 1188 1110.51 1188.4 1110.51 1188.93C1110.51 1189.6 1105.45 1208.53 1099.45 1231.33L1088.38 1272.67L1084.38 1273.33C1080.51 1274 1080.51 1274.13 1080.51 1283.33V1292.67L1100.25 1293.07L1119.85 1293.47V1283.33V1273.33H1115.31H1110.78L1112.78 1265.33L1114.78 1257.33H1127.31H1139.71L1141.05 1262.27C1143.85 1273.87 1143.98 1273.2 1138.65 1273.6L1133.85 1274V1283.33V1292.67L1154.91 1293.07L1175.85 1293.47V1283.33V1273.33H1172.25H1168.51L1158.11 1233.6C1152.38 1211.87 1147.45 1192.67 1147.05 1190.93C1146.25 1188.27 1146.65 1188 1151.05 1188H1155.98L1155.58 1178.27L1155.18 1168.67L1129.05 1168.27C1114.78 1168.13 1102.65 1168.4 1102.11 1168.8ZM1131.71 1220.67C1133.31 1228 1134.91 1235.33 1135.45 1236.93C1136.11 1239.87 1135.71 1240 1127.98 1240C1122.38 1240 1119.85 1239.47 1119.85 1238.27C1119.71 1234.27 1127.18 1204.27 1127.98 1205.73C1128.51 1206.67 1130.11 1213.33 1131.71 1220.67Z" fill="white"/>
<path d="M1307.05 1169.87C1306.65 1170.8 1306.51 1175.2 1306.78 1179.47L1307.18 1187.33L1311.85 1188L1316.51 1188.67L1316.91 1230.93L1317.18 1273.2L1312.25 1273.6L1307.18 1274V1283.33V1292.67H1347.85H1388.51V1272.67V1252.67L1378.25 1252.27L1367.85 1251.87V1262.67V1273.33H1355.18H1342.51V1256V1238.8L1354.25 1238.4L1365.85 1238V1227.33V1216.67L1354.25 1216.27L1342.51 1215.87V1202V1188H1354.51H1366.38L1366.78 1196.93L1367.18 1206L1377.58 1206.4L1387.85 1206.8V1187.33V1168H1347.85C1315.18 1168 1307.58 1168.4 1307.05 1169.87Z" fill="white"/>
<path d="M323.847 1430.67C323.847 1434.53 324.38 1436 325.847 1436C327.447 1436 327.847 1438.4 327.847 1450C327.847 1461.6 327.447 1464 325.847 1464C324.514 1464 323.847 1465.47 323.847 1468.67V1473.33H335.847H347.847V1468.67C347.847 1464.53 347.447 1464 344.514 1464C341.58 1464 341.18 1463.47 341.18 1458.67C341.18 1453.47 341.314 1453.33 345.98 1453.33C350.647 1453.33 350.647 1453.2 350.247 1448.27C349.847 1443.73 349.447 1443.33 345.58 1442.93C341.98 1442.53 341.18 1442 341.18 1439.2C341.18 1436.27 341.714 1436 347.847 1436C353.847 1436 354.78 1436.4 355.847 1439.33C356.914 1442 357.98 1442.67 361.847 1442.67H366.647L366.247 1434.27L365.847 1426L344.914 1425.6L323.847 1425.2V1430.67Z" fill="white"/>
<path d="M389.18 1430.53C389.18 1434.53 389.714 1436 391.18 1436C392.78 1436 393.18 1438.4 393.18 1450C393.18 1461.6 392.78 1464 391.18 1464C389.847 1464 389.18 1465.47 389.18 1468.67V1473.33H399.847H410.514V1468.67C410.514 1465.47 409.847 1464 408.514 1464C407.047 1464 406.514 1462.53 406.514 1458.67C406.514 1454 406.914 1453.33 409.58 1453.33C414.514 1453.33 415.847 1455.87 415.847 1464.93V1473.33H424.514H433.18V1468.67C433.18 1465.47 432.514 1464 431.18 1464C429.714 1464 429.18 1462.53 429.18 1458.67C429.18 1455.33 428.247 1452.4 426.78 1450.93C424.514 1448.67 424.514 1448.4 427.447 1446.13C431.98 1442.8 431.714 1433.6 427.047 1429.2C423.847 1426.27 422.514 1426 406.38 1425.6L389.18 1425.07V1430.53ZM416.914 1439.87C417.447 1443.6 415.314 1445.33 410.247 1445.33C406.914 1445.33 406.514 1444.93 406.514 1440.53C406.514 1435.87 406.647 1435.87 411.58 1436.27C415.58 1436.53 416.647 1437.2 416.914 1439.87Z" fill="white"/>
<path d="M469.847 1427.2C464.914 1429.47 459.18 1435.47 457.314 1440.4C453.98 1449.2 456.78 1462.27 463.447 1468.27C470.514 1474.67 483.314 1476.4 492.647 1472.13C503.047 1467.33 508.38 1456.13 505.98 1443.33C504.914 1437.6 498.114 1429.6 492.247 1427.2C486.78 1424.8 475.047 1424.93 469.847 1427.2ZM486.514 1438C491.447 1440.53 493.18 1443.73 493.18 1450.27C493.18 1461.6 479.714 1467.07 472.647 1458.53C466.914 1451.73 468.247 1442 475.58 1438.13C480.247 1435.6 481.714 1435.6 486.514 1438Z" fill="white"/>
<path d="M530.514 1430.67C530.514 1434.53 531.047 1436 532.514 1436C534.114 1436 534.514 1438.4 534.514 1450C534.514 1461.6 534.114 1464 532.514 1464C531.18 1464 530.514 1465.47 530.514 1468.67V1473.33H541.18H551.847V1468.67C551.847 1464.93 551.314 1464 549.18 1464C546.647 1464 546.514 1463.07 546.514 1451.73C546.514 1445.07 546.914 1440 547.447 1440.53C547.98 1440.93 550.247 1446.27 552.514 1452.4C556.247 1461.87 557.18 1463.33 559.98 1463.33C562.647 1463.33 563.714 1461.87 567.18 1452.4C569.447 1446.4 571.714 1441.07 572.247 1440.53C572.78 1440 573.18 1445.07 573.18 1451.73C573.18 1463.07 573.047 1464 570.514 1464C568.38 1464 567.847 1464.93 567.847 1468.67V1473.33H578.514H589.18V1468.67C589.18 1465.47 588.514 1464 587.18 1464C585.58 1464 585.18 1461.6 585.18 1450C585.18 1438.4 585.58 1436 587.18 1436C588.647 1436 589.18 1434.53 589.18 1430.67V1425.2L578.247 1425.6L567.18 1426L563.714 1435.33L560.114 1444.53L558.247 1440C557.18 1437.33 555.447 1433.07 554.514 1430.27L552.647 1425.33H541.58H530.514V1430.67Z" fill="white"/>
<path d="M651.447 1426.13C650.914 1426.67 650.514 1430.67 650.514 1434.93V1442.67H654.647C657.98 1442.67 658.914 1442 660.114 1438.67C662.78 1430.93 664.514 1434.93 664.914 1449.73C665.314 1463.33 665.18 1464 662.514 1464C660.38 1464 659.847 1464.8 659.847 1468.67V1473.33H671.18H682.514V1468.67C682.514 1464.8 681.98 1464 679.847 1464C677.18 1464 677.047 1463.33 677.447 1449.73C677.847 1434.93 679.58 1430.93 682.247 1438.67C683.447 1442 684.38 1442.67 687.847 1442.67H691.98L691.58 1434.27L691.18 1426L671.714 1425.6C661.047 1425.47 651.98 1425.73 651.447 1426.13Z" fill="white"/>
<path d="M714.514 1430.53C714.514 1434.53 715.047 1436 716.514 1436C718.114 1436 718.514 1438.4 718.514 1450C718.514 1461.6 718.114 1464 716.514 1464C715.18 1464 714.514 1465.47 714.514 1468.67V1473.33H725.18H735.847V1468.67C735.847 1465.47 735.18 1464 733.847 1464C732.38 1464 731.847 1462.53 731.847 1458.67C731.847 1454 732.247 1453.33 734.914 1453.33C739.847 1453.33 741.18 1455.87 741.18 1464.93V1473.33H749.847H758.514V1468.67C758.514 1465.47 757.847 1464 756.514 1464C755.047 1464 754.514 1462.4 754.514 1458C754.514 1453.6 753.847 1451.6 751.98 1450.4C749.58 1448.93 749.58 1448.8 752.647 1446.27C757.314 1442.67 757.18 1433.73 752.38 1429.2C749.18 1426.27 747.847 1426 731.714 1425.6L714.514 1425.07V1430.53ZM742.247 1439.87C742.78 1443.6 740.647 1445.33 735.58 1445.33C732.247 1445.33 731.847 1444.93 731.847 1440.53C731.847 1435.87 731.98 1435.87 736.914 1436.27C740.914 1436.53 741.98 1437.2 742.247 1439.87Z" fill="white"/>
<path d="M781.18 1430.67C781.18 1434.53 781.714 1436 783.18 1436C784.78 1436 785.18 1438.4 785.18 1450C785.18 1461.6 784.78 1464 783.18 1464C781.847 1464 781.18 1465.47 781.18 1468.67V1473.33H802.514H823.847V1463.87V1454.53L819.58 1454.93C815.98 1455.2 815.047 1456.13 813.98 1459.6C812.78 1463.87 812.514 1464 805.714 1464H798.514V1458.67C798.514 1453.47 798.647 1453.33 803.18 1453.33C807.714 1453.33 807.847 1453.2 807.847 1448C807.847 1442.8 807.714 1442.67 803.18 1442.67C799.047 1442.67 798.514 1442.27 798.514 1439.33C798.514 1436.13 798.914 1436 805.847 1436C812.514 1436 813.18 1436.27 813.98 1439.33C814.647 1442.13 815.58 1442.67 819.314 1442.67H823.847V1434V1425.33H802.514H781.18V1430.67Z" fill="white"/>
<path d="M849.18 1430.67C849.18 1434.53 849.714 1436 851.18 1436C852.78 1436 853.18 1438.4 853.18 1450C853.18 1461.6 852.78 1464 851.18 1464C849.847 1464 849.18 1465.47 849.18 1468.67V1473.33H870.514H891.847V1464V1454.67H887.18C883.047 1454.67 882.514 1455.07 881.714 1459.33C880.914 1464 880.914 1464 873.714 1464H866.514V1458.67C866.514 1453.47 866.647 1453.33 871.314 1453.33C875.98 1453.33 875.98 1453.2 875.58 1448.27C875.18 1443.73 874.78 1443.33 870.914 1442.93C867.314 1442.53 866.514 1442 866.514 1439.2C866.514 1436.27 866.914 1436 873.714 1436C880.247 1436 880.914 1436.27 881.714 1439.33C882.38 1442.13 883.314 1442.67 887.18 1442.67H891.847V1434V1425.33H870.514H849.18V1430.67Z" fill="white"/>
<path d="M954.514 1434C954.514 1442.53 954.514 1442.67 958.247 1442.67C961.18 1442.67 962.247 1441.73 963.447 1438.67C966.38 1430.8 967.847 1434.13 967.847 1449.33C967.847 1461.47 967.447 1464 965.847 1464C964.514 1464 963.847 1465.47 963.847 1468.67V1473.33H974.514H985.18V1468.67C985.18 1465.47 984.514 1464 983.18 1464C981.58 1464 981.18 1461.47 981.18 1449.33C981.18 1434.4 982.647 1430.67 985.314 1438.67C986.514 1441.87 987.58 1442.67 990.647 1442.67H994.514V1434V1425.33H974.514H954.514V1434Z" fill="white"/>
<path d="M1031.18 1427.47C1017.45 1434.53 1013.18 1451.47 1021.98 1464.27C1029.71 1475.47 1047.85 1478.13 1058.38 1469.6C1065.31 1464 1068.38 1458 1068.38 1450C1068.38 1435.2 1058.25 1425.33 1043.31 1425.33C1038.51 1425.33 1033.45 1426.27 1031.18 1427.47ZM1051.45 1440.27C1057.45 1445.87 1056.11 1457.6 1049.31 1461.33C1037.58 1467.47 1025.05 1452.53 1033.18 1442.27C1038.51 1435.47 1045.45 1434.67 1051.45 1440.27Z" fill="white"/>
<path d="M1130.51 1430.67C1130.51 1434.53 1131.05 1436 1132.51 1436C1134.11 1436 1134.51 1438.4 1134.51 1450C1134.51 1461.6 1134.11 1464 1132.51 1464C1131.18 1464 1130.51 1465.47 1130.51 1468.67V1473.33H1146.91C1165.31 1473.33 1168.25 1472.27 1170.25 1464.8C1172.11 1458.4 1170.78 1453.47 1166.51 1450.8L1162.78 1448.53L1165.98 1445.73C1168.11 1443.73 1169.18 1441.47 1169.18 1438.4C1169.18 1428.53 1162.91 1425.33 1142.91 1425.33H1130.51V1430.67ZM1156.91 1439.6C1157.31 1441.87 1156.51 1443.07 1153.85 1444C1148.51 1446 1147.85 1445.73 1147.85 1440.53C1147.85 1436 1147.98 1435.87 1152.25 1436.27C1155.45 1436.53 1156.65 1437.33 1156.91 1439.6ZM1157.18 1455.87C1158.91 1459.2 1158.91 1459.47 1156.38 1461.87C1155.31 1463.07 1152.91 1464 1151.05 1464C1148.25 1464 1147.85 1463.47 1147.85 1458.67C1147.85 1453.6 1148.11 1453.33 1151.85 1453.33C1154.38 1453.33 1156.25 1454.27 1157.18 1455.87Z" fill="white"/>
<path d="M1201.18 1430.67C1201.18 1434.67 1201.71 1436 1203.31 1436C1205.58 1436 1205.71 1435.47 1200.11 1452.93C1198.11 1459.33 1195.85 1464 1194.91 1464C1193.85 1464 1193.18 1465.73 1193.18 1468.67V1473.33H1203.18H1213.18V1468.67C1213.18 1466.13 1212.51 1464 1211.71 1464C1210.91 1464 1210.51 1462.67 1210.78 1460.93C1211.18 1458.4 1212.11 1458 1217.58 1457.6C1223.18 1457.2 1223.98 1457.6 1225.05 1460.27C1225.85 1462.53 1225.71 1463.47 1224.38 1463.73C1223.18 1464 1222.51 1466 1222.51 1468.8V1473.33H1232.51H1242.51V1468.67C1242.51 1465.6 1241.85 1464 1240.78 1464C1239.58 1464 1237.58 1459.33 1235.31 1451.73C1233.18 1445.07 1231.31 1438.67 1230.91 1437.73C1230.51 1436.8 1231.18 1436 1232.38 1436C1233.98 1436 1234.51 1434.67 1234.51 1430.67V1425.33H1217.85H1201.18V1430.67ZM1221.71 1446.27C1222.65 1449.07 1222.25 1449.33 1217.98 1449.33H1213.31L1215.18 1442.93C1216.25 1439.47 1217.18 1436.4 1217.31 1436C1217.45 1435.2 1220.51 1442.27 1221.71 1446.27Z" fill="white"/>
<path d="M1265.18 1430.67C1265.18 1434.53 1265.71 1436 1267.18 1436C1268.78 1436 1269.18 1438.4 1269.18 1450C1269.18 1461.6 1268.78 1464 1267.18 1464C1265.85 1464 1265.18 1465.47 1265.18 1468.67V1473.33H1275.85H1286.51V1468.67C1286.51 1465.47 1285.85 1464 1284.51 1464C1283.05 1464 1282.51 1462.53 1282.51 1458.67C1282.51 1454 1282.91 1453.33 1285.58 1453.33C1290.78 1453.33 1292.11 1455.33 1292.78 1464.53L1293.58 1473.33H1301.31H1309.18V1468.67C1309.18 1465.47 1308.51 1464 1307.18 1464C1305.71 1464 1305.18 1462.4 1305.18 1458C1305.18 1453.6 1304.51 1451.6 1302.65 1450.4C1300.25 1448.93 1300.25 1448.8 1303.31 1446.27C1305.85 1444.4 1306.51 1442.53 1306.51 1438.27C1306.38 1427.47 1301.98 1425.33 1280.38 1425.33H1265.18V1430.67ZM1292.91 1439.87C1293.45 1443.6 1291.31 1445.33 1286.25 1445.33C1282.91 1445.33 1282.51 1444.93 1282.51 1440.53C1282.51 1435.87 1282.65 1435.87 1287.58 1436.27C1291.58 1436.53 1292.65 1437.2 1292.91 1439.87Z" fill="white"/>
<path d="M1331.85 1430.67C1331.85 1435.07 1332.25 1436 1334.51 1436C1337.05 1436 1337.18 1436.93 1337.18 1450C1337.18 1463.07 1337.05 1464 1334.51 1464C1332.38 1464 1331.85 1464.93 1331.85 1468.67V1473.33H1342.51H1353.18V1468.67C1353.18 1465.47 1352.51 1464 1351.18 1464C1349.71 1464 1349.18 1462.53 1349.18 1458.67C1349.18 1453.87 1349.58 1453.33 1352.38 1453.33C1357.85 1453.33 1359.85 1456.67 1359.85 1465.47V1473.33H1367.85H1375.85V1468.67C1375.85 1465.47 1375.18 1464 1373.85 1464C1372.38 1464 1371.85 1462.4 1371.85 1458.13C1371.85 1454.4 1371.05 1451.73 1369.71 1450.53C1367.85 1448.93 1367.85 1448.67 1369.71 1447.33C1373.31 1444.67 1374.78 1438.8 1373.05 1433.73C1370.91 1426.93 1365.85 1425.33 1347.18 1425.33H1331.85V1430.67ZM1359.71 1437.87C1362.51 1441.2 1359.18 1445.33 1353.85 1445.33C1349.45 1445.33 1349.18 1445.07 1349.18 1440.67C1349.18 1436.27 1349.45 1436 1353.71 1436C1356.11 1436 1358.91 1436.8 1359.71 1437.87Z" fill="white"/>
<path d="M1398.51 1430.67C1398.51 1435.07 1398.91 1436 1401.18 1436C1403.71 1436 1403.85 1436.93 1403.85 1450C1403.85 1463.07 1403.71 1464 1401.18 1464C1399.05 1464 1398.51 1464.93 1398.51 1468.67V1473.33H1419.85H1441.18V1464V1454.67H1437.31C1433.98 1454.67 1433.18 1455.47 1431.85 1459.33C1430.38 1463.87 1430.11 1464 1423.05 1464H1415.71L1416.11 1458.93C1416.51 1454.4 1416.91 1454 1420.91 1453.6C1424.91 1453.2 1425.18 1452.8 1425.18 1447.87C1425.18 1442.8 1425.05 1442.67 1420.51 1442.67C1416.38 1442.67 1415.85 1442.27 1415.85 1439.33C1415.85 1436.13 1416.25 1436 1423.18 1436C1429.85 1436 1430.65 1436.27 1431.85 1439.33C1432.78 1441.87 1434.11 1442.67 1437.18 1442.67H1441.18V1434V1425.33H1419.85H1398.51V1430.67Z" fill="white"/>
<path d="M1466.51 1430.67C1466.51 1434.53 1467.05 1436 1468.51 1436C1470.11 1436 1470.51 1438.4 1470.51 1450C1470.51 1461.6 1470.11 1464 1468.51 1464C1467.18 1464 1466.51 1465.47 1466.51 1468.67V1473.33H1486.51H1506.51V1464V1454.67H1502.65C1499.31 1454.67 1498.51 1455.47 1497.18 1459.33C1495.71 1463.73 1495.31 1464 1489.71 1464H1483.85V1450C1483.85 1438.4 1484.25 1436 1485.85 1436C1487.31 1436 1487.85 1434.53 1487.85 1430.67V1425.33H1477.18H1466.51V1430.67Z" fill="white"/>
<path d="M270.514 1457.33V1462.67H279.847H289.18V1457.33V1452H279.847H270.514V1457.33Z" fill="white"/>
<path d="M1530.51 1457.33V1462.67H1539.18H1547.85V1457.33V1452H1539.18H1530.51V1457.33Z" fill="white"/>
</svg>
