<svg width="1200" height="602" viewBox="0 0 1200 602" fill="none" xmlns="http://www.w3.org/2000/svg">
<path d="M604.89 81.4401C764.14 81.4401 923.39 81.4701 1082.65 81.3101C1087.82 81.3101 1088.85 82.6401 1088.85 87.6001C1088.7 214.41 1088.7 341.22 1088.85 468.04C1088.85 472.74 1087.96 474.12 1082.95 474.11C965.86 473.95 848.78 473.95 731.69 474.11C726.75 474.11 725.53 472.87 725.74 468.07C726.15 458.9 725.86 458.89 734.95 458.89C845.82 458.89 956.69 458.85 1067.56 459.03C1072.8 459.03 1073.73 457.6 1073.73 452.71C1073.59 335.96 1073.59 219.21 1073.73 102.47C1073.73 97.7101 1072.74 96.4301 1067.79 96.4301C759.2 96.5701 450.6 96.5701 142.01 96.4301C137.07 96.4301 136.06 97.6901 136.07 102.46C136.22 219.38 136.21 336.29 136.09 453.21C136.09 457.63 136.98 459.02 141.73 459.02C253.78 458.87 365.83 458.94 477.87 458.77C483.06 458.77 484.3 460.11 484.06 465.08C483.63 473.99 483.94 474.01 475.09 474.01C359.01 474.01 242.93 473.97 126.85 474.14C121.85 474.14 120.94 472.78 120.95 468.07C121.09 341.09 121.08 214.11 120.96 87.1301C120.96 82.6501 121.95 81.36 126.63 81.36C286.05 81.49 445.47 81.4701 604.89 81.4701V81.4401Z" fill="#FEBF45"/>
<path d="M514.17 491.6C514.17 477.85 514.15 464.09 514.17 450.34C514.18 443.51 516.67 440.99 523.61 440.97C545.11 440.93 566.62 440.93 588.12 440.97C595.09 440.98 597.62 443.42 597.63 450.26C597.67 478.11 597.66 505.95 597.63 533.8C597.63 540.01 595.34 542.4 589.19 542.41C566.85 542.47 544.51 542.45 522.16 542.41C516.9 542.41 514.21 539.74 514.18 534.38C514.11 520.12 514.16 505.86 514.16 491.61L514.17 491.6Z" fill="#FEBF45"/>
<path d="M641.18 502.21C641.18 492.66 641.18 483.11 641.18 473.56C641.18 464.78 643.02 462.91 651.59 462.91C663.34 462.91 675.08 462.88 686.83 462.92C693.16 462.94 695.59 465.37 695.6 471.7C695.63 492.31 695.63 512.92 695.6 533.53C695.6 539.94 693.21 542.39 686.93 542.41C674.34 542.46 661.76 542.46 649.17 542.41C643.91 542.39 641.24 539.74 641.2 534.39C641.12 523.67 641.18 512.94 641.18 502.22V502.21Z" fill="#FEBF45"/>
<path d="M605.11 390.44C625.27 390.44 645.42 390.43 665.58 390.44C674.99 390.44 680.76 396.06 680.78 405.26C680.82 421.7 680.8 438.13 680.78 454.57C680.78 456.82 681.46 459.24 677.54 459.27C673.76 459.3 674.12 457.13 674.13 454.73C674.15 439.47 674.16 424.2 674.13 408.94C674.12 399.56 672 397.48 662.55 397.48C623.92 397.48 585.28 397.48 546.65 397.48C537.79 397.48 535.69 399.55 535.65 408.44C535.6 416.83 535.59 425.21 535.67 433.6C535.69 436.05 535.53 437.68 532.26 437.66C529.1 437.64 528.74 436.09 528.76 433.65C528.87 424.04 528.89 414.42 529 404.81C529.1 396.07 534.77 390.47 543.63 390.45C564.12 390.41 584.62 390.44 605.11 390.44Z" fill="#FEBF45"/>
<path d="M604.66 404.71C622.95 404.71 641.24 404.69 659.54 404.71C665.71 404.71 666.65 405.6 666.67 411.6C666.72 426.01 666.62 440.42 666.74 454.83C666.76 457.85 666.24 459.28 662.69 459.29C658.88 459.3 659.32 457.12 659.32 454.77C659.33 441.87 659.22 428.96 659.4 416.06C659.45 412.78 658.54 411.78 655.21 411.79C621.65 411.9 588.08 411.91 554.52 411.79C551.09 411.78 550.28 412.94 550.4 416.12C550.63 421.98 550.37 427.85 550.51 433.71C550.57 436.31 550.15 437.65 547.02 437.64C543.84 437.64 543 436.48 543.06 433.52C543.21 425.98 543.24 418.44 543.06 410.9C542.95 406.05 545.14 404.57 549.79 404.62C568.08 404.79 586.37 404.69 604.66 404.69V404.71Z" fill="#FDBF45"/>
<path d="M619.5 491.8C624.36 491.8 629.23 491.97 634.08 491.74C637.32 491.59 637.45 493.29 637.51 495.75C637.57 498.33 636.76 499.23 634.1 499.19C624.38 499.05 614.66 499.05 604.94 499.19C602.29 499.23 601.45 498.35 601.52 495.76C601.59 493.31 601.69 491.59 604.94 491.74C609.79 491.97 614.66 491.8 619.52 491.8H619.5Z" fill="#FEBF45"/>
<path d="M619.47 531.64C614.61 531.64 609.74 531.47 604.89 531.7C601.61 531.85 601.59 530.07 601.5 527.65C601.41 525.01 602.34 524.21 604.95 524.25C614.67 524.38 624.39 524.39 634.11 524.25C636.81 524.21 637.54 525.18 637.5 527.72C637.46 530.22 637.25 531.85 634.04 531.7C629.19 531.47 624.32 531.64 619.46 531.64H619.47Z" fill="#FEBF45"/>
<path d="M521.52 491.65C521.52 478.58 521.6 465.51 521.46 452.45C521.43 449.27 522.28 448.02 525.68 448.04C545.65 448.17 565.61 448.15 585.58 448.06C589.12 448.04 590.58 449.02 590.56 452.91C590.4 478.88 590.42 504.85 590.54 530.82C590.55 534.12 589.97 535.5 586.22 535.47C566.09 535.28 545.95 535.29 525.82 535.47C522.12 535.5 521.41 534.22 521.45 530.86C521.62 517.79 521.52 504.72 521.52 491.66V491.65Z" fill="#085470"/>
<path d="M648.52 502.71C648.52 493.16 648.65 483.6 648.45 474.05C648.38 470.72 649.44 469.8 652.73 469.86C663.13 470.06 673.54 470.03 683.95 469.87C687.05 469.82 688.37 470.43 688.34 473.94C688.17 493.04 688.19 512.15 688.34 531.26C688.36 534.59 687.35 535.51 684.06 535.45C673.66 535.25 663.25 535.21 652.85 535.46C649.16 535.55 648.39 534.25 648.46 530.86C648.67 521.48 648.53 512.09 648.53 502.71H648.52Z" fill="#095570"/>
<path d="M632.27 267.64C634.42 267.77 637.14 266.75 636.89 270.77C636.55 276.33 632.46 281.32 627.59 281.39C623.61 281.44 622.01 279.12 622 275.33C622 269.7 624.67 267.66 632.26 267.64H632.27Z" fill="#095570"/>
<path d="M474 260.6C472.66 260.6 471.33 260.6 469.99 260.6C464.25 260.59 463.38 259.09 466.22 254.03C468.32 250.3 471.46 248.71 475.76 249.3C480.4 249.93 482.64 253.02 483.82 257.1C484.49 259.4 484.03 260.96 481 260.65C478.69 260.41 476.33 260.6 474 260.6Z" fill="#075470"/>
<path d="M893.33 260.6C891.99 260.6 890.66 260.6 889.32 260.6C883.57 260.6 882.7 259.09 885.54 254.04C887.64 250.31 890.78 248.71 895.08 249.3C899.72 249.93 901.96 253.01 903.15 257.09C903.82 259.37 903.38 260.96 900.33 260.65C898.02 260.41 895.66 260.6 893.33 260.6Z" fill="#075470"/>
<path d="M316.8 260.6C315.46 260.6 314.13 260.6 312.79 260.6C307.01 260.6 306.14 259.12 308.95 254.07C311.15 250.11 314.51 248.54 318.96 249.36C323.51 250.2 325.63 253.37 326.66 257.52C327.26 259.96 326.23 260.79 323.81 260.62C321.49 260.46 319.14 260.58 316.8 260.59V260.6Z" fill="#075470"/>
<path d="M586.74 488.19C586.74 498.07 586.6 507.95 586.8 517.83C586.89 522.42 585.59 524.47 580.52 524.39C564.09 524.13 547.65 524.18 531.22 524.36C526.64 524.41 524.9 522.69 524.92 518.19C525.02 498.26 524.92 478.33 524.99 458.41C525.01 452.62 525.91 451.84 531.84 451.83C547.94 451.81 564.04 451.81 580.14 451.83C586.03 451.83 586.73 452.56 586.74 458.54C586.76 468.42 586.74 478.3 586.74 488.18V488.19Z" fill="#FEBF45"/>
<path d="M559.48 530.04C558.95 532.01 558 533.55 555.72 533.3C553.63 533.07 552.25 531.65 552.43 529.62C552.6 527.67 553.97 526.25 556.17 526.36C558.42 526.48 559.23 528.05 559.48 530.04Z" fill="#FCBE45"/>
<path d="M684.8 498.96C684.8 505.48 684.77 512 684.8 518.53C684.82 522.66 683.11 524.54 678.71 524.37C671.69 524.1 664.64 524.19 657.61 524.34C653.82 524.42 651.96 522.92 651.97 519.11C651.98 505.73 652 492.35 651.96 478.98C651.95 475.49 653.43 473.67 657.04 473.69C664.58 473.73 672.11 473.73 679.65 473.69C683.22 473.67 684.84 475.36 684.81 478.9C684.76 485.59 684.8 492.28 684.79 498.97L684.8 498.96Z" fill="#FEBF45"/>
<path d="M668.48 533.39C666.08 533.03 665 531.85 665.09 529.66C665.18 527.43 666.44 526.29 668.57 526.39C670.73 526.49 671.75 527.84 671.69 530.02C671.63 532.31 670.23 533.13 668.48 533.39Z" fill="#FABD45"/>
<path d="M579.44 488.05C579.44 496.55 579.3 505.06 579.52 513.56C579.6 516.52 578.64 517.32 575.84 517.3C562.42 517.2 548.99 517.18 535.57 517.32C532.8 517.35 532.26 516.32 532.27 513.82C532.36 496.73 532.37 479.64 532.27 462.55C532.25 459.89 533.17 459.12 535.75 459.13C549.17 459.23 562.6 459.26 576.02 459.11C579.14 459.07 579.59 460.48 579.57 463.04C579.49 471.37 579.54 479.71 579.54 488.04C579.51 488.04 579.48 488.04 579.46 488.04L579.44 488.05Z" fill="#065471"/>
<path d="M677.46 499.39C677.46 504.25 677.31 509.12 677.52 513.97C677.63 516.69 676.64 517.53 674.06 517.29C669.27 516.84 663.05 519.34 660.1 516.24C657.8 513.82 659.37 507.67 659.33 503.17C659.27 496.97 659.47 490.76 659.25 484.57C659.15 481.63 660.17 480.76 662.97 480.99C667.61 481.37 673.56 479.13 676.57 481.86C679.4 484.42 677.19 490.4 677.44 494.87C677.53 496.37 677.45 497.89 677.45 499.39H677.46Z" fill="#065471"/>
<path d="M182.926 232.23C180.27 232.23 178.084 232.369 176.368 232.646C174.708 232.922 173.325 233.503 172.218 234.389C171.166 235.274 170.309 236.519 169.645 238.124C169.036 239.674 168.455 241.749 167.901 244.35H165.577L166.158 228.246H219.615L220.196 244.35H217.872C217.319 241.749 216.71 239.674 216.046 238.124C215.437 236.519 214.607 235.274 213.556 234.389C212.504 233.503 211.121 232.922 209.405 232.646C207.69 232.369 205.476 232.23 202.765 232.23H197.701V280.79C197.701 282.506 197.812 283.889 198.033 284.94C198.255 285.992 198.67 286.822 199.278 287.431C199.942 288.039 200.855 288.482 202.018 288.759C203.235 288.98 204.812 289.146 206.749 289.257V291H179.19V289.257C181.127 289.146 182.677 288.98 183.839 288.759C185.001 288.482 185.886 288.012 186.495 287.348C187.159 286.628 187.574 285.66 187.74 284.442C187.962 283.225 188.072 281.62 188.072 279.628V232.23H182.926ZM270.416 257.05V238.622C270.416 236.907 270.305 235.551 270.084 234.555C269.918 233.503 269.531 232.673 268.922 232.064C268.368 231.456 267.538 231.041 266.432 230.819C265.325 230.543 263.858 230.321 262.032 230.155V228.246H288.346V230.155C286.52 230.321 285.053 230.543 283.946 230.819C282.84 231.041 281.982 231.456 281.373 232.064C280.82 232.673 280.46 233.503 280.294 234.555C280.128 235.551 280.045 236.907 280.045 238.622V280.79C280.045 282.45 280.128 283.806 280.294 284.857C280.515 285.854 280.93 286.656 281.539 287.265C282.148 287.873 282.978 288.316 284.029 288.593C285.136 288.869 286.575 289.091 288.346 289.257V291H262.032V289.257C263.858 289.146 265.325 288.98 266.432 288.759C267.538 288.482 268.368 288.012 268.922 287.348C269.531 286.628 269.918 285.66 270.084 284.442C270.305 283.225 270.416 281.62 270.416 279.628V261.2H241.612V280.79C241.612 282.45 241.695 283.806 241.861 284.857C242.083 285.854 242.498 286.656 243.106 287.265C243.715 287.873 244.573 288.316 245.68 288.593C246.786 288.869 248.225 289.091 249.996 289.257V291H223.6V289.257C225.481 289.146 226.975 288.98 228.082 288.759C229.189 288.482 230.019 288.012 230.572 287.348C231.181 286.628 231.568 285.66 231.734 284.442C231.9 283.225 231.983 281.62 231.983 279.628V238.622C231.983 236.907 231.873 235.551 231.651 234.555C231.485 233.503 231.098 232.673 230.489 232.064C229.936 231.456 229.106 231.041 227.999 230.819C226.892 230.543 225.426 230.321 223.6 230.155V228.246H249.996V230.155C248.17 230.321 246.703 230.543 245.597 230.819C244.49 231.041 243.632 231.456 243.023 232.064C242.47 232.673 242.083 233.503 241.861 234.555C241.695 235.551 241.612 236.907 241.612 238.622V257.05H270.416ZM342.55 291H291.417V289.257C293.132 289.146 294.516 288.952 295.567 288.676C296.674 288.399 297.504 287.956 298.058 287.348C298.666 286.739 299.081 285.909 299.303 284.857C299.524 283.806 299.635 282.45 299.635 280.79V238.622C299.635 236.962 299.524 235.606 299.303 234.555C299.137 233.503 298.749 232.673 298.141 232.064C297.532 231.456 296.674 231.013 295.567 230.736C294.516 230.46 293.132 230.266 291.417 230.155V228.246H341.72L341.886 241.859H339.645C339.202 239.701 338.704 237.986 338.15 236.713C337.597 235.385 336.795 234.361 335.743 233.642C334.747 232.922 333.391 232.452 331.676 232.23C330.016 232.009 327.857 231.898 325.201 231.898H312.418C311.145 231.898 310.287 232.092 309.845 232.479C309.457 232.867 309.264 233.752 309.264 235.136V256.137H323.79C325.727 256.137 327.304 256.026 328.521 255.805C329.739 255.583 330.707 255.168 331.427 254.56C332.201 253.896 332.783 252.982 333.17 251.82C333.557 250.658 333.917 249.109 334.249 247.172H336.49V269.169H334.249C333.917 267.177 333.557 265.6 333.17 264.438C332.783 263.22 332.229 262.307 331.51 261.698C330.79 261.034 329.822 260.591 328.604 260.37C327.387 260.149 325.782 260.038 323.79 260.038H309.264V283.446C309.264 284.387 309.319 285.079 309.43 285.521C309.54 285.964 309.734 286.296 310.011 286.518C310.453 286.794 311.505 287.043 313.165 287.265C314.881 287.431 316.9 287.514 319.225 287.514H321.881C325.257 287.514 328.079 287.348 330.348 287.016C332.672 286.684 334.636 286.047 336.241 285.106C337.901 284.166 339.34 282.893 340.558 281.288C341.775 279.683 342.965 277.58 344.127 274.979H346.866L342.55 291ZM461.251 230.155C459.978 230.377 458.927 230.626 458.097 230.902C457.322 231.179 456.658 231.539 456.104 231.981C455.551 232.424 455.081 233.033 454.693 233.808C454.306 234.582 453.891 235.578 453.448 236.796C451.733 241.444 450.239 245.456 448.966 248.832C447.748 252.208 446.642 255.279 445.646 258.046C444.649 260.757 443.736 263.275 442.906 265.6C442.132 267.924 441.301 270.359 440.416 272.904C439.531 275.45 438.59 278.272 437.594 281.371C436.598 284.415 435.436 287.984 434.107 292.079H432.696L417.589 251.986L402.896 292.079H401.485L383.224 241.195C382.338 238.926 381.563 237.1 380.899 235.717C380.235 234.333 379.544 233.254 378.824 232.479C378.16 231.649 377.385 231.096 376.5 230.819C375.67 230.487 374.646 230.266 373.429 230.155V228.246H396.671V230.155C394.291 230.266 392.659 230.543 391.773 230.985C390.888 231.373 390.445 232.064 390.445 233.061C390.445 233.614 390.528 234.25 390.694 234.97C390.916 235.689 391.192 236.519 391.524 237.46L405.221 273.153L415.348 246.342L412.193 238.622C411.363 236.741 410.644 235.246 410.035 234.14C409.482 232.978 408.873 232.12 408.209 231.566C407.545 230.958 406.77 230.57 405.885 230.404C405.055 230.238 403.976 230.155 402.647 230.155V228.246H427.882V230.155C425.392 230.155 423.565 230.432 422.403 230.985C421.297 231.539 420.743 232.341 420.743 233.393C420.743 233.891 420.854 234.555 421.075 235.385C421.297 236.215 421.629 237.156 422.071 238.207L423.233 241.112L435.768 273.402L447.555 241.361C448.606 238.484 449.132 236.076 449.132 234.14C449.132 232.867 448.634 231.954 447.638 231.4C446.697 230.792 445.009 230.377 442.574 230.155V228.246H461.251V230.155ZM514.708 291H463.575V289.257C465.291 289.146 466.674 288.952 467.726 288.676C468.832 288.399 469.662 287.956 470.216 287.348C470.825 286.739 471.24 285.909 471.461 284.857C471.682 283.806 471.793 282.45 471.793 280.79V238.622C471.793 236.962 471.682 235.606 471.461 234.555C471.295 233.503 470.908 232.673 470.299 232.064C469.69 231.456 468.832 231.013 467.726 230.736C466.674 230.46 465.291 230.266 463.575 230.155V228.246H513.878L514.044 241.859H511.803C511.36 239.701 510.862 237.986 510.309 236.713C509.755 235.385 508.953 234.361 507.901 233.642C506.905 232.922 505.549 232.452 503.834 232.23C502.174 232.009 500.016 231.898 497.359 231.898H484.576C483.303 231.898 482.446 232.092 482.003 232.479C481.616 232.867 481.422 233.752 481.422 235.136V256.137H495.948C497.885 256.137 499.462 256.026 500.68 255.805C501.897 255.583 502.866 255.168 503.585 254.56C504.36 253.896 504.941 252.982 505.328 251.82C505.715 250.658 506.075 249.109 506.407 247.172H508.648V269.169H506.407C506.075 267.177 505.715 265.6 505.328 264.438C504.941 263.22 504.387 262.307 503.668 261.698C502.949 261.034 501.98 260.591 500.763 260.37C499.545 260.149 497.94 260.038 495.948 260.038H481.422V283.446C481.422 284.387 481.477 285.079 481.588 285.521C481.699 285.964 481.892 286.296 482.169 286.518C482.612 286.794 483.663 287.043 485.323 287.265C487.039 287.431 489.059 287.514 491.383 287.514H494.039C497.415 287.514 500.237 287.348 502.506 287.016C504.83 286.684 506.795 286.047 508.399 285.106C510.06 284.166 511.498 282.893 512.716 281.288C513.933 279.683 515.123 277.58 516.285 274.979H519.024L514.708 291ZM548.409 228.246C556.655 228.246 562.853 229.602 567.003 232.313C571.153 235.025 573.229 239.037 573.229 244.35C573.229 246.286 572.896 248.113 572.232 249.828C571.568 251.488 570.628 252.844 569.41 253.896C568.801 254.394 568.22 254.836 567.667 255.224C567.114 255.611 566.477 255.971 565.758 256.303C565.094 256.579 564.291 256.856 563.351 257.133C562.465 257.41 561.414 257.714 560.196 258.046C561.746 258.378 563.074 258.71 564.181 259.042C565.343 259.374 566.367 259.761 567.252 260.204C568.137 260.591 568.94 261.034 569.659 261.532C570.379 262.03 571.098 262.611 571.817 263.275C574.916 266.042 576.466 269.612 576.466 273.983C576.466 276.64 575.94 279.019 574.889 281.122C573.837 283.225 572.315 285.023 570.323 286.518C568.331 287.956 565.924 289.063 563.102 289.838C560.279 290.613 557.097 291 553.556 291H521.847V289.257C523.784 289.201 525.333 289.063 526.495 288.842C527.713 288.565 528.653 288.122 529.317 287.514C529.981 286.905 530.424 286.075 530.646 285.023C530.867 283.917 530.978 282.506 530.978 280.79V238.622C530.978 236.851 530.867 235.44 530.646 234.389C530.479 233.337 530.064 232.507 529.4 231.898C528.736 231.29 527.796 230.875 526.578 230.653C525.416 230.432 523.839 230.266 521.847 230.155V228.246H548.409ZM540.523 283.612C540.523 285.162 540.938 286.213 541.769 286.767C542.599 287.265 544.12 287.514 546.334 287.514C547.994 287.514 549.461 287.486 550.733 287.431C552.062 287.32 553.251 287.182 554.303 287.016C555.41 286.794 556.406 286.518 557.291 286.186C558.176 285.854 559.007 285.466 559.781 285.023C563.655 282.81 565.592 279.158 565.592 274.066C565.592 268.09 562.853 264.05 557.374 261.947C556.489 261.615 555.52 261.339 554.469 261.117C553.473 260.896 552.311 260.73 550.982 260.619C549.71 260.453 548.215 260.342 546.5 260.287C544.785 260.176 542.792 260.121 540.523 260.121V283.612ZM549.654 256.303C554.137 256.303 557.568 255.334 559.947 253.397C562.382 251.405 563.6 248.528 563.6 244.765C563.6 240.448 562.188 237.211 559.366 235.053C556.544 232.895 552.366 231.815 546.832 231.815H542.682C541.243 231.815 540.523 232.756 540.523 234.638V256.303H549.654ZM648.019 291H646.607L622.784 238.954V277.055C622.784 279.49 622.895 281.482 623.116 283.031C623.393 284.525 623.863 285.715 624.527 286.601C625.191 287.486 626.104 288.122 627.267 288.51C628.429 288.897 629.923 289.146 631.749 289.257V291H609.503V289.257C611.44 289.091 612.989 288.842 614.151 288.51C615.369 288.122 616.282 287.486 616.891 286.601C617.555 285.715 617.997 284.525 618.219 283.031C618.44 281.482 618.551 279.49 618.551 277.055V238.622C618.551 236.907 618.44 235.523 618.219 234.472C618.053 233.42 617.638 232.59 616.974 231.981C616.365 231.373 615.479 230.958 614.317 230.736C613.155 230.46 611.606 230.266 609.669 230.155V228.246H628.429L650.26 276.142L671.344 228.246H690.104V230.155C688.333 230.266 686.922 230.46 685.87 230.736C684.819 231.013 683.989 231.456 683.38 232.064C682.771 232.673 682.356 233.503 682.135 234.555C681.969 235.606 681.886 236.962 681.886 238.622V280.79C681.886 282.45 681.996 283.806 682.218 284.857C682.439 285.909 682.826 286.739 683.38 287.348C683.989 287.956 684.819 288.399 685.87 288.676C686.977 288.952 688.388 289.146 690.104 289.257V291H663.541V289.257C665.423 289.146 666.917 288.952 668.023 288.676C669.186 288.399 670.071 287.929 670.68 287.265C671.288 286.545 671.676 285.604 671.842 284.442C672.063 283.225 672.174 281.62 672.174 279.628V236.713L648.019 291ZM759.747 291H735.592V289.257C736.422 289.257 737.114 289.257 737.667 289.257C738.22 289.201 738.663 289.146 738.995 289.091C739.382 288.98 739.715 288.897 739.991 288.842C740.268 288.731 740.545 288.593 740.821 288.427C741.264 288.15 741.596 287.818 741.817 287.431C742.094 286.988 742.232 286.545 742.232 286.103C742.232 284.553 741.624 282.395 740.406 279.628L736.422 270.58H711.686L707.286 281.62C707.065 282.229 706.871 282.865 706.705 283.529C706.594 284.138 706.539 284.747 706.539 285.355C706.539 286.628 707.037 287.597 708.033 288.261C709.029 288.925 710.689 289.257 713.014 289.257V291H694.171V289.257C695.333 289.201 696.329 289.008 697.159 288.676C697.989 288.344 698.819 287.652 699.649 286.601C700.479 285.494 701.365 283.944 702.306 281.952C703.302 279.905 704.547 277.138 706.041 273.651L725.714 227.167H727.54L751.197 280.956C751.972 282.727 752.636 284.138 753.189 285.189C753.798 286.241 754.407 287.071 755.016 287.68C755.624 288.233 756.288 288.62 757.008 288.842C757.783 289.063 758.696 289.201 759.747 289.257V291ZM735.177 266.762L724.22 240.614L713.263 266.762H735.177ZM804.82 247.172H802.496C802.109 245.788 801.721 244.571 801.334 243.52C801.002 242.468 800.587 241.527 800.089 240.697C799.646 239.812 799.148 239.037 798.595 238.373C798.041 237.654 797.405 236.907 796.686 236.132C793.365 232.646 789.492 230.902 785.064 230.902C782.132 230.902 779.752 231.677 777.926 233.227C776.155 234.776 775.27 236.879 775.27 239.535C775.27 242.136 776.349 244.571 778.507 246.84C780.665 249.109 784.207 251.599 789.132 254.311C795.44 257.742 799.978 261.09 802.745 264.354C805.567 267.619 806.979 271.189 806.979 275.062C806.979 277.497 806.48 279.766 805.484 281.869C804.488 283.972 803.132 285.798 801.417 287.348C799.701 288.897 797.654 290.115 795.274 291C792.895 291.885 790.349 292.328 787.638 292.328C785.701 292.328 783.792 292.162 781.91 291.83C780.029 291.498 778.202 290.945 776.432 290.17C775.491 289.838 774.633 289.589 773.858 289.423C773.084 289.201 772.447 289.091 771.949 289.091C771.23 289.091 770.621 289.395 770.123 290.004C769.625 290.613 769.348 291.36 769.293 292.245H767.218L764.396 272.157H766.554C768.933 277.968 771.645 282.229 774.688 284.94C777.732 287.597 781.412 288.925 785.729 288.925C789.215 288.925 792.009 287.956 794.112 286.02C796.271 284.083 797.35 281.537 797.35 278.383C797.35 277.165 797.211 276.086 796.935 275.146C796.713 274.205 796.381 273.402 795.938 272.738C794.832 270.967 793.061 269.141 790.626 267.26C788.246 265.378 785.369 263.497 781.993 261.615C779.337 260.232 777.068 258.848 775.187 257.465C773.305 256.081 771.756 254.643 770.538 253.148C769.376 251.654 768.518 250.105 767.965 248.5C767.411 246.895 767.135 245.152 767.135 243.271C767.135 238.013 768.961 233.918 772.613 230.985C774.163 229.713 775.878 228.744 777.76 228.08C779.641 227.361 781.495 227.001 783.321 227.001C784.981 227.001 786.642 227.195 788.302 227.582C790.017 227.914 791.76 228.412 793.531 229.076C794.417 229.464 795.219 229.74 795.938 229.906C796.658 230.072 797.267 230.155 797.765 230.155C799.314 230.155 800.31 229.104 800.753 227.001H802.745L804.82 247.172ZM832.047 232.23C829.391 232.23 827.205 232.369 825.489 232.646C823.829 232.922 822.446 233.503 821.339 234.389C820.287 235.274 819.43 236.519 818.766 238.124C818.157 239.674 817.576 241.749 817.022 244.35H814.698L815.279 228.246H868.736L869.317 244.35H866.993C866.44 241.749 865.831 239.674 865.167 238.124C864.558 236.519 863.728 235.274 862.677 234.389C861.625 233.503 860.242 232.922 858.526 232.646C856.811 232.369 854.597 232.23 851.886 232.23H846.822V280.79C846.822 282.506 846.933 283.889 847.154 284.94C847.376 285.992 847.791 286.822 848.399 287.431C849.063 288.039 849.977 288.482 851.139 288.759C852.356 288.98 853.933 289.146 855.87 289.257V291H828.312V289.257C830.248 289.146 831.798 288.98 832.96 288.759C834.122 288.482 835.007 288.012 835.616 287.348C836.28 286.628 836.695 285.66 836.861 284.442C837.083 283.225 837.193 281.62 837.193 279.628V232.23H832.047ZM923.272 291H872.14V289.257C873.855 289.146 875.239 288.952 876.29 288.676C877.397 288.399 878.227 287.956 878.78 287.348C879.389 286.739 879.804 285.909 880.025 284.857C880.247 283.806 880.357 282.45 880.357 280.79V238.622C880.357 236.962 880.247 235.606 880.025 234.555C879.859 233.503 879.472 232.673 878.863 232.064C878.255 231.456 877.397 231.013 876.29 230.736C875.239 230.46 873.855 230.266 872.14 230.155V228.246H922.442L922.608 241.859H920.367C919.924 239.701 919.426 237.986 918.873 236.713C918.32 235.385 917.517 234.361 916.466 233.642C915.47 232.922 914.114 232.452 912.398 232.23C910.738 232.009 908.58 231.898 905.924 231.898H893.141C891.868 231.898 891.01 232.092 890.567 232.479C890.18 232.867 889.986 233.752 889.986 235.136V256.137H904.513C906.45 256.137 908.027 256.026 909.244 255.805C910.462 255.583 911.43 255.168 912.149 254.56C912.924 253.896 913.505 252.982 913.893 251.82C914.28 250.658 914.64 249.109 914.972 247.172H917.213V269.169H914.972C914.64 267.177 914.28 265.6 913.893 264.438C913.505 263.22 912.952 262.307 912.232 261.698C911.513 261.034 910.545 260.591 909.327 260.37C908.11 260.149 906.505 260.038 904.513 260.038H889.986V283.446C889.986 284.387 890.042 285.079 890.152 285.521C890.263 285.964 890.457 286.296 890.733 286.518C891.176 286.794 892.228 287.043 893.888 287.265C895.603 287.431 897.623 287.514 899.947 287.514H902.604C905.979 287.514 908.801 287.348 911.07 287.016C913.395 286.684 915.359 286.047 916.964 285.106C918.624 284.166 920.063 282.893 921.28 281.288C922.498 279.683 923.688 277.58 924.85 274.979H927.589L923.272 291ZM991.256 291H975.982L953.404 261.781L948.175 262.03V280.79C948.175 282.45 948.258 283.806 948.424 284.857C948.645 285.909 949.06 286.767 949.669 287.431C950.278 288.039 951.135 288.482 952.242 288.759C953.349 288.98 954.815 289.146 956.642 289.257V291H930.411V289.257C932.182 289.091 933.593 288.869 934.645 288.593C935.751 288.316 936.581 287.846 937.135 287.182C937.688 286.518 938.048 285.604 938.214 284.442C938.38 283.225 938.463 281.62 938.463 279.628V238.622C938.463 236.962 938.38 235.634 938.214 234.638C938.048 233.586 937.688 232.756 937.135 232.147C936.581 231.539 935.751 231.096 934.645 230.819C933.593 230.543 932.182 230.321 930.411 230.155V228.246H956.559C961.207 228.246 965.357 228.882 969.01 230.155C972.717 231.373 975.457 233.033 977.228 235.136C978.39 236.409 979.247 237.903 979.801 239.618C980.354 241.278 980.631 243.077 980.631 245.014C980.631 249.33 979.275 252.733 976.563 255.224C973.907 257.714 969.563 259.568 963.531 260.785L983.038 284.857C984.366 286.407 985.611 287.486 986.773 288.095C987.991 288.703 989.485 289.091 991.256 289.257V291ZM948.175 258.544C950.388 258.489 952.298 258.406 953.902 258.295C955.562 258.184 957.001 258.018 958.219 257.797C959.492 257.52 960.654 257.188 961.705 256.801C962.757 256.413 963.836 255.915 964.942 255.307C966.658 254.366 967.986 252.982 968.927 251.156C969.868 249.275 970.338 247.144 970.338 244.765C970.338 240.282 968.927 237.017 966.104 234.97C963.338 232.867 958.91 231.815 952.823 231.815C950.942 231.815 949.697 232.064 949.088 232.562C948.479 233.005 948.175 233.891 948.175 235.219V258.544ZM1036.41 247.172H1034.09C1033.7 245.788 1033.31 244.571 1032.93 243.52C1032.59 242.468 1032.18 241.527 1031.68 240.697C1031.24 239.812 1030.74 239.037 1030.19 238.373C1029.63 237.654 1029 236.907 1028.28 236.132C1024.96 232.646 1021.08 230.902 1016.66 230.902C1013.72 230.902 1011.34 231.677 1009.52 233.227C1007.75 234.776 1006.86 236.879 1006.86 239.535C1006.86 242.136 1007.94 244.571 1010.1 246.84C1012.26 249.109 1015.8 251.599 1020.72 254.311C1027.03 257.742 1031.57 261.09 1034.34 264.354C1037.16 267.619 1038.57 271.189 1038.57 275.062C1038.57 277.497 1038.07 279.766 1037.08 281.869C1036.08 283.972 1034.72 285.798 1033.01 287.348C1031.29 288.897 1029.25 290.115 1026.87 291C1024.49 291.885 1021.94 292.328 1019.23 292.328C1017.29 292.328 1015.38 292.162 1013.5 291.83C1011.62 291.498 1009.79 290.945 1008.02 290.17C1007.08 289.838 1006.22 289.589 1005.45 289.423C1004.68 289.201 1004.04 289.091 1003.54 289.091C1002.82 289.091 1002.21 289.395 1001.71 290.004C1001.22 290.613 1000.94 291.36 1000.88 292.245H998.81L995.987 272.157H998.146C1000.53 277.968 1003.24 282.229 1006.28 284.94C1009.32 287.597 1013 288.925 1017.32 288.925C1020.81 288.925 1023.6 287.956 1025.7 286.02C1027.86 284.083 1028.94 281.537 1028.94 278.383C1028.94 277.165 1028.8 276.086 1028.53 275.146C1028.31 274.205 1027.97 273.402 1027.53 272.738C1026.42 270.967 1024.65 269.141 1022.22 267.26C1019.84 265.378 1016.96 263.497 1013.58 261.615C1010.93 260.232 1008.66 258.848 1006.78 257.465C1004.9 256.081 1003.35 254.643 1002.13 253.148C1000.97 251.654 1000.11 250.105 999.557 248.5C999.003 246.895 998.727 245.152 998.727 243.271C998.727 238.013 1000.55 233.918 1004.21 230.985C1005.75 229.713 1007.47 228.744 1009.35 228.08C1011.23 227.361 1013.09 227.001 1014.91 227.001C1016.57 227.001 1018.23 227.195 1019.89 227.582C1021.61 227.914 1023.35 228.412 1025.12 229.076C1026.01 229.464 1026.81 229.74 1027.53 229.906C1028.25 230.072 1028.86 230.155 1029.36 230.155C1030.91 230.155 1031.9 229.104 1032.34 227.001H1034.34L1036.41 247.172Z" fill="#FEBF45"/>
</svg>
