<svg width="1000" height="500" viewBox="0 0 1000 500" fill="none" xmlns="http://www.w3.org/2000/svg">
<rect width="1000" height="500" rx="82" fill="#2B3D4F"/>
<rect x="28.5" y="26.5" width="943" height="447" rx="74.5" stroke="#E89E1D" stroke-width="15"/>
<path d="M730.028 320C730.028 319.597 730.56 318.827 731.623 317.69C732.723 316.517 734.043 315.16 735.583 313.62C737.123 312.08 738.645 310.43 740.148 308.67C741.688 306.91 742.99 305.003 744.053 302.95C745.153 300.897 745.703 298.99 745.703 297.23C745.703 295.543 745.227 294.022 744.273 292.665C743.357 291.272 742.018 290.575 740.258 290.575C738.755 290.575 737.435 290.758 736.298 291.125C735.162 291.492 734.3 291.932 733.713 292.445C733.163 292.958 732.705 293.472 732.338 293.985C731.972 294.498 731.678 294.938 731.458 295.305C731.275 295.672 731.128 295.855 731.018 295.855C730.725 295.855 730.578 295.672 730.578 295.305C730.578 294.902 730.762 294.297 731.128 293.49C731.495 292.683 732.045 291.803 732.778 290.85C733.512 289.86 734.593 289.017 736.023 288.32C737.453 287.623 739.067 287.275 740.863 287.275C744.273 287.275 746.822 288.173 748.508 289.97C750.232 291.73 751.093 293.912 751.093 296.515C751.093 298.018 750.342 299.888 748.838 302.125C747.335 304.325 745.667 306.342 743.833 308.175C742.037 310.008 740.387 311.713 738.883 313.29C737.38 314.867 736.628 315.82 736.628 316.15H748.233C749.737 315.49 750.818 314.335 751.478 312.685H752.578L750.488 320H730.028Z" fill="#E89E1D"/>
<path d="M703.065 320C703.065 319.597 703.597 318.827 704.66 317.69C705.76 316.517 707.08 315.16 708.62 313.62C710.16 312.08 711.682 310.43 713.185 308.67C714.725 306.91 716.027 305.003 717.09 302.95C718.19 300.897 718.74 298.99 718.74 297.23C718.74 295.543 718.264 294.022 717.31 292.665C716.394 291.272 715.055 290.575 713.295 290.575C711.792 290.575 710.472 290.758 709.335 291.125C708.199 291.492 707.337 291.932 706.75 292.445C706.2 292.958 705.742 293.472 705.375 293.985C705.009 294.498 704.715 294.938 704.495 295.305C704.312 295.672 704.165 295.855 704.055 295.855C703.762 295.855 703.615 295.672 703.615 295.305C703.615 294.902 703.799 294.297 704.165 293.49C704.532 292.683 705.082 291.803 705.815 290.85C706.549 289.86 707.63 289.017 709.06 288.32C710.49 287.623 712.104 287.275 713.9 287.275C717.31 287.275 719.859 288.173 721.545 289.97C723.269 291.73 724.13 293.912 724.13 296.515C724.13 298.018 723.379 299.888 721.875 302.125C720.372 304.325 718.704 306.342 716.87 308.175C715.074 310.008 713.424 311.713 711.92 313.29C710.417 314.867 709.665 315.82 709.665 316.15H721.27C722.774 315.49 723.855 314.335 724.515 312.685H725.615L723.525 320H703.065Z" fill="#E89E1D"/>
<path d="M682.592 293.545C681.346 296.552 680.722 300.017 680.722 303.94C680.722 307.863 681.346 311.328 682.592 314.335C683.876 317.342 685.471 318.845 687.377 318.845C689.284 318.845 690.861 317.342 692.107 314.335C693.391 311.328 694.032 307.863 694.032 303.94C694.032 300.017 693.391 296.552 692.107 293.545C690.861 290.502 689.284 288.98 687.377 288.98C685.471 288.98 683.876 290.502 682.592 293.545ZM678.852 315.765C676.799 312.538 675.772 308.597 675.772 303.94C675.772 299.283 676.799 295.342 678.852 292.115C680.942 288.888 683.784 287.275 687.377 287.275C690.971 287.275 693.794 288.888 695.847 292.115C697.937 295.342 698.982 299.283 698.982 303.94C698.982 308.597 697.937 312.538 695.847 315.765C693.794 318.955 690.971 320.55 687.377 320.55C683.784 320.55 680.942 318.955 678.852 315.765Z" fill="#E89E1D"/>
<path d="M649.14 320C649.14 319.597 649.671 318.827 650.735 317.69C651.835 316.517 653.155 315.16 654.695 313.62C656.235 312.08 657.756 310.43 659.26 308.67C660.8 306.91 662.101 305.003 663.165 302.95C664.265 300.897 664.815 298.99 664.815 297.23C664.815 295.543 664.338 294.022 663.385 292.665C662.468 291.272 661.13 290.575 659.37 290.575C657.866 290.575 656.546 290.758 655.41 291.125C654.273 291.492 653.411 291.932 652.825 292.445C652.275 292.958 651.816 293.472 651.45 293.985C651.083 294.498 650.79 294.938 650.57 295.305C650.386 295.672 650.24 295.855 650.13 295.855C649.836 295.855 649.69 295.672 649.69 295.305C649.69 294.902 649.873 294.297 650.24 293.49C650.606 292.683 651.156 291.803 651.89 290.85C652.623 289.86 653.705 289.017 655.135 288.32C656.565 287.623 658.178 287.275 659.975 287.275C663.385 287.275 665.933 288.173 667.62 289.97C669.343 291.73 670.205 293.912 670.205 296.515C670.205 298.018 669.453 299.888 667.95 302.125C666.446 304.325 664.778 306.342 662.945 308.175C661.148 310.008 659.498 311.713 657.995 313.29C656.491 314.867 655.74 315.82 655.74 316.15H667.345C668.848 315.49 669.93 314.335 670.59 312.685H671.69L669.6 320H649.14Z" fill="#E89E1D"/>
<path d="M613.973 306.745C614.009 309.825 614.889 312.557 616.613 314.94C618.373 317.287 620.334 318.46 622.498 318.46C625.688 318.46 628.254 317.25 630.198 314.83L631.518 315.49C630.454 317.25 629.061 318.533 627.338 319.34C625.651 320.147 623.414 320.55 620.628 320.55C619.234 320.55 617.896 320.348 616.613 319.945C615.329 319.505 614.064 318.808 612.818 317.855C611.571 316.865 610.581 315.417 609.848 313.51C609.114 311.603 608.748 309.33 608.748 306.69C608.748 303.463 609.738 300.75 611.718 298.55C613.734 296.35 616.521 295.25 620.078 295.25C623.964 295.25 626.861 296.35 628.768 298.55C630.674 300.713 631.628 303.445 631.628 306.745H613.973ZM614.028 305.04H626.238C626.018 302.4 625.449 300.383 624.533 298.99C623.653 297.597 622.094 296.9 619.858 296.9C618.574 296.9 617.328 297.652 616.118 299.155C614.944 300.658 614.248 302.62 614.028 305.04Z" fill="#E89E1D"/>
<path d="M595.244 296.9C592.971 296.9 591.138 297.762 589.744 299.485C588.351 301.208 587.654 303.537 587.654 306.47C587.654 309.587 588.516 312.373 590.239 314.83C591.999 317.25 593.979 318.46 596.179 318.46C599.369 318.46 601.936 317.25 603.879 314.83L605.199 315.49C604.136 317.25 602.743 318.533 601.019 319.34C599.333 320.147 597.096 320.55 594.309 320.55C592.916 320.55 591.578 320.348 590.294 319.945C589.011 319.505 587.746 318.808 586.499 317.855C585.253 316.865 584.263 315.417 583.529 313.51C582.796 311.603 582.429 309.33 582.429 306.69C582.429 303.5 583.548 300.805 585.784 298.605C588.058 296.368 591.028 295.25 594.694 295.25C597.591 295.25 599.828 295.745 601.404 296.735C602.981 297.725 603.769 299.173 603.769 301.08C603.769 301.923 603.549 302.602 603.109 303.115C602.669 303.592 602.101 303.83 601.404 303.83C600.744 303.83 600.158 303.665 599.644 303.335C599.168 303.005 598.929 302.528 598.929 301.905C598.929 301.135 599.113 300.567 599.479 300.2C599.883 299.833 600.341 299.65 600.854 299.65C600.378 297.817 598.508 296.9 595.244 296.9Z" fill="#E89E1D"/>
<path d="M551.481 320V318.845C553.461 318.845 554.616 318.478 554.946 317.745V299.155C552.673 298.972 551.518 298.88 551.481 298.88V297.615C552.178 297.615 553.535 297.23 555.551 296.46C557.605 295.653 559.053 295.25 559.896 295.25V297.78C561.876 296.093 564.058 295.25 566.441 295.25C569.851 295.25 572.308 295.892 573.811 297.175C575.351 298.422 576.121 300.383 576.121 303.06V317.745C576.451 318.478 577.606 318.845 579.586 318.845V320H567.706V318.845C569.686 318.845 570.841 318.478 571.171 317.745V302.675C571.171 298.972 569.485 297.12 566.111 297.12C563.801 297.12 561.73 297.927 559.896 299.54V317.745C560.226 318.478 561.381 318.845 563.361 318.845V320H551.481Z" fill="#E89E1D"/>
<path d="M536.765 320V318.845C538.745 318.845 539.9 318.478 540.23 317.745V299.155C537.956 298.972 536.801 298.88 536.765 298.88V297.615C537.461 297.615 538.818 297.23 540.835 296.46C542.888 295.653 544.336 295.25 545.18 295.25V317.745C545.51 318.478 546.665 318.845 548.645 318.845V320H536.765ZM542.54 291.73C541.733 291.73 541.018 291.437 540.395 290.85C539.808 290.227 539.515 289.438 539.515 288.485C539.515 287.642 539.771 286.908 540.285 286.285C540.835 285.662 541.531 285.35 542.375 285.35C543.181 285.35 543.896 285.662 544.52 286.285C545.143 286.908 545.455 287.697 545.455 288.65C545.455 289.493 545.18 290.227 544.63 290.85C544.08 291.437 543.383 291.73 542.54 291.73Z" fill="#E89E1D"/>
<path d="M522.92 320.55C521.123 320.55 519.29 320.275 517.42 319.725C515.55 319.175 514.578 318.9 514.505 318.9C514.285 318.9 514.028 319.01 513.735 319.23C513.441 319.45 513.295 319.707 513.295 320H512.03V312.355H513.24C513.643 314.555 514.725 316.168 516.485 317.195C518.281 318.185 520.316 318.68 522.59 318.68C524.533 318.68 526.128 318.24 527.375 317.36C528.621 316.48 529.245 315.16 529.245 313.4C529.245 312.593 529.061 311.86 528.695 311.2C528.365 310.54 527.833 309.935 527.1 309.385C526.403 308.798 525.725 308.322 525.065 307.955C524.405 307.552 523.543 307.075 522.48 306.525C521.453 305.938 520.665 305.48 520.115 305.15C518.831 304.343 517.878 303.738 517.255 303.335C516.631 302.895 515.825 302.253 514.835 301.41C513.881 300.567 513.185 299.687 512.745 298.77C512.305 297.853 512.085 296.863 512.085 295.8C512.085 293.637 513.075 291.675 515.055 289.915C517.035 288.155 519.253 287.275 521.71 287.275C522.773 287.275 524.093 287.55 525.67 288.1C527.246 288.65 528.145 288.925 528.365 288.925C528.805 288.925 529.025 288.558 529.025 287.825H530.29L530.84 294.81H529.63C529.41 293.197 528.603 291.858 527.21 290.795C525.816 289.695 524.001 289.145 521.765 289.145C520.078 289.145 518.721 289.695 517.695 290.795C516.705 291.858 516.21 292.94 516.21 294.04C516.21 294.737 516.375 295.397 516.705 296.02C517.035 296.607 517.548 297.157 518.245 297.67C518.941 298.183 519.601 298.642 520.225 299.045C520.848 299.412 521.673 299.87 522.7 300.42C523.763 300.97 524.57 301.41 525.12 301.74C526.623 302.657 527.705 303.335 528.365 303.775C529.025 304.215 529.868 304.893 530.895 305.81C531.958 306.727 532.691 307.68 533.095 308.67C533.535 309.623 533.755 310.687 533.755 311.86C533.755 314.573 532.655 316.7 530.455 318.24C528.255 319.78 525.743 320.55 522.92 320.55Z" fill="#E89E1D"/>
<path d="M492.298 295.25V318.405C492.298 322.182 491.381 325.225 489.548 327.535C487.751 329.845 485.111 331 481.628 331C478.511 331 475.999 330.468 474.093 329.405C472.223 328.342 471.288 327.223 471.288 326.05C471.288 325.207 471.508 324.528 471.948 324.015C472.388 323.538 472.956 323.3 473.653 323.3C474.313 323.3 474.881 323.465 475.358 323.795C475.871 324.125 476.128 324.602 476.128 325.225C476.128 326.398 475.669 327.168 474.753 327.535C475.743 328.525 477.851 329.02 481.078 329.02C484.854 329.02 486.926 325.647 487.293 318.9C485.606 320 483.443 320.55 480.803 320.55C479.593 320.55 478.383 320.367 477.173 320C475.999 319.597 474.808 318.955 473.598 318.075C472.424 317.195 471.453 315.893 470.683 314.17C469.949 312.41 469.583 310.357 469.583 308.01C469.583 303.903 470.719 300.75 472.993 298.55C475.303 296.35 478.309 295.25 482.013 295.25C484.323 295.25 486.339 295.837 488.063 297.01C489.933 295.837 491.344 295.25 492.298 295.25ZM487.348 317.085V316.425V298.275C486.028 297.505 484.359 297.12 482.343 297.12C480.326 297.12 478.566 298.092 477.063 300.035C475.559 301.942 474.808 304.6 474.808 308.01C474.808 311.237 475.413 313.822 476.623 315.765C477.833 317.708 479.409 318.68 481.353 318.68C483.773 318.68 485.771 318.148 487.348 317.085Z" fill="#E89E1D"/>
<path d="M438.635 320V318.845C440.615 318.845 441.77 318.478 442.1 317.745V299.155C439.826 298.972 438.671 298.88 438.635 298.88V297.615C439.331 297.615 440.688 297.23 442.705 296.46C444.758 295.653 446.206 295.25 447.05 295.25V297.78C449.03 296.093 451.211 295.25 453.595 295.25C457.005 295.25 459.461 295.892 460.965 297.175C462.505 298.422 463.275 300.383 463.275 303.06V317.745C463.605 318.478 464.76 318.845 466.74 318.845V320H454.86V318.845C456.84 318.845 457.995 318.478 458.325 317.745V302.675C458.325 298.972 456.638 297.12 453.265 297.12C450.955 297.12 448.883 297.927 447.05 299.54V317.745C447.38 318.478 448.535 318.845 450.515 318.845V320H438.635Z" fill="#E89E1D"/>
<path d="M423.918 320V318.845C425.898 318.845 427.053 318.478 427.383 317.745V299.155C425.11 298.972 423.955 298.88 423.918 298.88V297.615C424.615 297.615 425.971 297.23 427.988 296.46C430.041 295.653 431.49 295.25 432.333 295.25V317.745C432.663 318.478 433.818 318.845 435.798 318.845V320H423.918ZM429.693 291.73C428.886 291.73 428.171 291.437 427.548 290.85C426.961 290.227 426.668 289.438 426.668 288.485C426.668 287.642 426.925 286.908 427.438 286.285C427.988 285.662 428.685 285.35 429.528 285.35C430.335 285.35 431.05 285.662 431.673 286.285C432.296 286.908 432.608 287.697 432.608 288.65C432.608 289.493 432.333 290.227 431.783 290.85C431.233 291.437 430.536 291.73 429.693 291.73Z" fill="#E89E1D"/>
<path d="M413.797 287.825V295.8H418.527V297.45H413.797V314.94C413.797 316.077 413.999 316.957 414.402 317.58C414.806 318.167 415.557 318.46 416.657 318.46C417.317 318.46 417.977 318.149 418.637 317.525C419.334 316.865 419.811 315.967 420.067 314.83L421.387 315.49C420.617 318.864 418.417 320.55 414.787 320.55C410.607 320.55 408.517 318.534 408.517 314.5V297.45H404.667V295.8C406.391 295.8 407.949 295.085 409.342 293.655C410.736 292.225 411.432 290.282 411.432 287.825H413.797Z" fill="#E89E1D"/>
<path d="M383.471 299.87C383.984 299.87 384.424 300.053 384.791 300.42C385.194 300.787 385.396 301.355 385.396 302.125C385.396 302.748 385.139 303.225 384.626 303.555C384.149 303.885 383.581 304.05 382.921 304.05C382.224 304.05 381.656 303.812 381.216 303.335C380.776 302.822 380.556 302.143 380.556 301.3C380.556 299.393 381.344 297.908 382.921 296.845C384.497 295.782 386.734 295.25 389.631 295.25C393.041 295.25 395.534 296.093 397.111 297.78C398.724 299.467 399.531 301.703 399.531 304.49V315.38C399.531 316.553 399.714 317.415 400.081 317.965C400.484 318.515 400.961 318.79 401.511 318.79C401.987 318.79 402.409 318.662 402.776 318.405C403.179 318.148 403.381 317.837 403.381 317.47H404.371C404.371 318.497 403.986 319.248 403.216 319.725C402.482 320.202 401.181 320.44 399.311 320.44C397.477 320.44 396.176 319.688 395.406 318.185C393.242 319.762 390.547 320.55 387.321 320.55C381.821 320.55 379.071 318.313 379.071 313.84C379.071 312.887 379.401 312.025 380.061 311.255C380.757 310.485 381.747 309.843 383.031 309.33C384.314 308.817 385.524 308.413 386.661 308.12C387.797 307.79 389.209 307.442 390.896 307.075C392.619 306.672 393.847 306.36 394.581 306.14C394.581 303.06 394.177 300.805 393.371 299.375C392.564 297.945 391.134 297.23 389.081 297.23C385.781 297.23 383.911 298.11 383.471 299.87ZM394.911 316.81C394.691 316.003 394.581 315.013 394.581 313.84V307.35C394.177 307.497 393.481 307.698 392.491 307.955C391.537 308.212 390.749 308.432 390.126 308.615C389.539 308.798 388.824 309.073 387.981 309.44C387.137 309.807 386.477 310.173 386.001 310.54C385.524 310.907 385.102 311.402 384.736 312.025C384.369 312.612 384.186 313.253 384.186 313.95C384.186 315.71 384.516 316.938 385.176 317.635C385.872 318.332 386.899 318.68 388.256 318.68C390.676 318.68 392.894 318.057 394.911 316.81Z" fill="#E89E1D"/>
<path d="M361.334 295.8V296.955C360.27 296.955 359.5 297.028 359.024 297.175L365.569 313.29L371.839 297.56C371.325 297.157 370.299 296.955 368.759 296.955V295.8H377.779V296.955C375.762 296.955 374.625 297.303 374.369 298L365.569 320H362.874L354.129 298.055C353.799 297.322 352.644 296.955 350.664 296.955V295.8H361.334Z" fill="#E89E1D"/>
<path d="M328.984 306.36C328.984 310.54 329.772 313.675 331.349 315.765C332.962 317.855 335.015 318.9 337.509 318.9C339.489 318.9 341.084 318.02 342.294 316.26C343.504 314.463 344.109 312.172 344.109 309.385C344.109 301.098 341.23 296.955 335.474 296.955C333.53 296.955 331.954 297.89 330.744 299.76C329.57 301.593 328.984 303.793 328.984 306.36ZM336.794 320.55C332.687 320.55 329.479 319.358 327.169 316.975C324.859 314.555 323.704 311.383 323.704 307.46C323.704 303.903 324.749 300.988 326.839 298.715C328.929 296.405 332.119 295.25 336.409 295.25C340.735 295.25 343.98 296.405 346.144 298.715C348.307 300.988 349.389 304.123 349.389 308.12C349.389 311.677 348.344 314.647 346.254 317.03C344.2 319.377 341.047 320.55 336.794 320.55Z" fill="#E89E1D"/>
<path d="M292.756 320V318.845C294.736 318.845 295.891 318.478 296.221 317.745V299.155C293.948 298.972 292.793 298.88 292.756 298.88V297.615C293.453 297.615 294.809 297.23 296.826 296.46C298.879 295.653 300.328 295.25 301.171 295.25V297.78C303.151 296.093 305.333 295.25 307.716 295.25C311.126 295.25 313.583 295.892 315.086 297.175C316.626 298.422 317.396 300.383 317.396 303.06V317.745C317.726 318.478 318.881 318.845 320.861 318.845V320H308.981V318.845C310.961 318.845 312.116 318.478 312.446 317.745V302.675C312.446 298.972 310.759 297.12 307.386 297.12C305.076 297.12 303.004 297.927 301.171 299.54V317.745C301.501 318.478 302.656 318.845 304.636 318.845V320H292.756Z" fill="#E89E1D"/>
<path d="M262.033 320V318.845C264.013 318.845 265.168 318.478 265.498 317.745V299.155C263.225 298.972 262.07 298.88 262.033 298.88V297.615C262.73 297.615 264.087 297.23 266.103 296.46C268.157 295.653 269.605 295.25 270.448 295.25V297.78C272.428 296.093 274.61 295.25 276.993 295.25C280.403 295.25 282.86 295.892 284.363 297.175C285.903 298.422 286.673 300.383 286.673 303.06V317.745C287.003 318.478 288.158 318.845 290.138 318.845V320H278.258V318.845C280.238 318.845 281.393 318.478 281.723 317.745V302.675C281.723 298.972 280.037 297.12 276.663 297.12C274.353 297.12 272.282 297.927 270.448 299.54V317.745C270.778 318.478 271.933 318.845 273.913 318.845V320H262.033Z" fill="#E89E1D"/>
<path d="M246.31 320V318.845C248.29 318.845 249.445 318.479 249.775 317.745V290.08C249.445 289.347 248.29 288.98 246.31 288.98V287.825H258.3V288.98C256.32 288.98 255.165 289.347 254.835 290.08V317.745C255.165 318.479 256.32 318.845 258.3 318.845V320H246.31Z" fill="#E89E1D"/>
<path d="M839.475 255.656L841.159 250.603C842.014 251.066 843.491 251.677 845.59 252.434C847.69 253.166 850.058 253.532 852.695 253.532C855.747 253.532 857.81 252.971 858.884 251.848C859.958 250.725 860.495 249.345 860.495 247.709C860.495 246.196 860.288 245 859.873 244.121C859.482 243.242 858.371 242.46 856.54 241.777L847.312 238.408C844.504 237.382 842.539 236.174 841.416 234.782C840.292 233.391 839.731 231.486 839.731 229.069C839.731 225.798 840.634 223.21 842.441 221.306C844.248 219.401 847.543 218.449 852.329 218.449C855.063 218.449 857.565 218.669 859.836 219.108C862.131 219.523 863.986 220.012 865.402 220.573L863.828 225.847C863.095 225.529 862.131 225.212 860.935 224.895C859.738 224.577 858.493 224.309 857.199 224.089C855.905 223.845 854.709 223.723 853.61 223.723C850.461 223.723 848.422 224.125 847.495 224.931C846.591 225.712 846.14 226.982 846.14 228.74C846.14 229.936 846.359 230.827 846.799 231.413C847.263 231.975 848.154 232.512 849.472 233.024L858.591 236.577C860.764 237.407 862.399 238.298 863.498 239.25C864.621 240.178 865.378 241.301 865.769 242.619C866.159 243.938 866.354 245.61 866.354 247.636C866.354 249.663 865.927 251.53 865.073 253.239C864.243 254.924 862.888 256.279 861.008 257.304C859.152 258.305 856.687 258.806 853.61 258.806C849.997 258.806 846.958 258.403 844.492 257.597C842.026 256.792 840.354 256.145 839.475 255.656Z" fill="#E89E1D"/>
<path d="M811.862 219.182H818.747V224.675C819.309 223.21 820.322 222.038 821.787 221.159C823.276 220.256 824.96 219.609 826.84 219.218C828.72 218.828 830.515 218.632 832.224 218.632L832.004 224.528C829.807 224.528 827.695 224.833 825.668 225.444C823.642 226.03 821.982 226.799 820.688 227.751C819.394 228.703 818.747 229.729 818.747 230.827V258H811.862V219.182Z" fill="#E89E1D"/>
<path d="M768.796 244.304V230.791C768.796 227.128 770.053 224.162 772.568 221.892C775.083 219.597 779.123 218.449 784.689 218.449C790.012 218.449 793.93 219.499 796.445 221.599C798.959 223.674 800.217 226.555 800.217 230.241V239.47H775.681V244.926C775.681 248.076 776.303 250.297 777.548 251.591C778.818 252.885 781.284 253.532 784.946 253.532C787.119 253.532 788.828 253.459 790.073 253.312C791.342 253.142 792.27 252.653 792.856 251.848C793.466 251.018 793.869 249.626 794.064 247.673H800.144C799.826 250.725 799.155 253.056 798.129 254.667C797.128 256.254 795.578 257.341 793.479 257.927C791.379 258.513 788.535 258.806 784.946 258.806C779.16 258.806 775.021 257.597 772.531 255.18C770.041 252.763 768.796 249.138 768.796 244.304ZM793.552 234.819V229.509C793.552 227.165 792.734 225.615 791.098 224.858C789.487 224.101 787.351 223.723 784.689 223.723C781.955 223.723 779.77 224.199 778.134 225.151C776.499 226.103 775.681 227.775 775.681 230.168V234.819H793.552Z" fill="#E89E1D"/>
<path d="M742.319 246.904V224.382H735.837V219.182H742.575L743.417 207.17H749.204V219.182H758.945V224.382H749.204V246.464C749.204 249.028 749.96 250.676 751.474 251.408C752.988 252.141 755.38 252.507 758.652 252.507H759.421L758.688 258.293H757.663C752.365 258.293 748.483 257.463 746.018 255.803C743.552 254.143 742.319 251.176 742.319 246.904Z" fill="#E89E1D"/>
<path d="M701.779 255.656L703.464 250.603C704.318 251.066 705.795 251.677 707.895 252.434C709.995 253.166 712.363 253.532 715 253.532C718.051 253.532 720.114 252.971 721.188 251.848C722.263 250.725 722.8 249.345 722.8 247.709C722.8 246.196 722.592 245 722.177 244.121C721.787 243.242 720.676 242.46 718.845 241.777L709.616 238.408C706.809 237.382 704.843 236.174 703.72 234.782C702.597 233.391 702.036 231.486 702.036 229.069C702.036 225.798 702.939 223.21 704.746 221.306C706.552 219.401 709.848 218.449 714.633 218.449C717.368 218.449 719.87 218.669 722.141 219.108C724.436 219.523 726.291 220.012 727.707 220.573L726.132 225.847C725.4 225.529 724.436 225.212 723.239 224.895C722.043 224.577 720.798 224.309 719.504 224.089C718.21 223.845 717.014 223.723 715.915 223.723C712.766 223.723 710.727 224.125 709.799 224.931C708.896 225.712 708.444 226.982 708.444 228.74C708.444 229.936 708.664 230.827 709.104 231.413C709.567 231.975 710.458 232.512 711.777 233.024L720.896 236.577C723.068 237.407 724.704 238.298 725.803 239.25C726.926 240.178 727.683 241.301 728.073 242.619C728.464 243.938 728.659 245.61 728.659 247.636C728.659 249.663 728.232 251.53 727.377 253.239C726.547 254.924 725.192 256.279 723.312 257.304C721.457 258.305 718.991 258.806 715.915 258.806C712.302 258.806 709.262 258.403 706.796 257.597C704.331 256.792 702.658 256.145 701.779 255.656Z" fill="#E89E1D"/>
<path d="M670.688 258.806C667.832 258.806 665.5 258.317 663.693 257.341C661.911 256.34 660.593 255.034 659.738 253.422C658.908 251.787 658.493 250.041 658.493 248.186C658.493 246.232 658.872 244.597 659.628 243.278C660.41 241.936 661.862 240.727 663.986 239.653C666.135 238.554 669.272 237.407 673.398 236.21C675.546 235.576 677.268 235.014 678.562 234.526C679.855 234.038 680.795 233.415 681.381 232.658C681.967 231.901 682.26 230.815 682.26 229.399C682.26 228.349 682.089 227.397 681.748 226.542C681.43 225.688 680.759 225.004 679.733 224.492C678.732 223.979 677.194 223.723 675.119 223.723C672.531 223.723 670.639 223.991 669.443 224.528C668.247 225.065 667.478 225.773 667.136 226.652C666.818 227.507 666.66 228.459 666.66 229.509V231.23H660.031V229.472C660.031 225.639 661.313 222.844 663.876 221.086C666.44 219.328 670.261 218.449 675.339 218.449C680.466 218.449 684.042 219.646 686.069 222.038C688.12 224.431 689.145 227.629 689.145 231.633V248.186C689.145 250.236 689.401 251.555 689.914 252.141C690.451 252.727 691.55 253.02 693.21 253.02L692.404 258.293H691.013C688.425 258.293 686.557 257.792 685.41 256.792C684.262 255.766 683.396 254.338 682.81 252.507C682.248 253.386 681.467 254.313 680.466 255.29C679.489 256.267 678.208 257.097 676.621 257.78C675.058 258.464 673.081 258.806 670.688 258.806ZM671.53 253.679C672.922 253.679 674.375 253.386 675.888 252.8C677.402 252.189 678.745 251.396 679.917 250.419C681.113 249.418 681.894 248.32 682.26 247.124V236.906C681.723 237.443 680.783 238.151 679.44 239.03C678.122 239.885 676.23 240.666 673.764 241.374C670.761 242.229 668.552 243.107 667.136 244.011C665.744 244.914 665.048 246.232 665.048 247.966C665.048 249.919 665.549 251.359 666.55 252.287C667.575 253.215 669.235 253.679 671.53 253.679Z" fill="#E89E1D"/>
<path d="M596.53 258V205.046H603.305L621.323 234.343L639.157 205.046H645.676V258H638.718V216.948L623.886 241.228H618.43L603.562 217.021V258H596.53Z" fill="#E89E1D"/>
<path d="M548.63 258.806C546.335 258.806 544.321 258.403 542.587 257.597C540.878 256.767 539.511 256.035 538.486 255.4L537.607 258H532.517V202.885H539.401V221.013C540.646 220.305 542.209 219.707 544.089 219.218C545.969 218.706 547.946 218.449 550.021 218.449C554.807 218.449 558.396 219.633 560.788 222.001C563.181 224.37 564.377 227.385 564.377 231.047V245.109C564.377 247.697 563.767 250.029 562.546 252.104C561.325 254.179 559.543 255.815 557.199 257.011C554.855 258.208 551.999 258.806 548.63 258.806ZM547.604 253.386C550.314 253.386 552.634 252.727 554.562 251.408C556.516 250.065 557.492 248.21 557.492 245.842V230.534C557.492 228.215 556.735 226.506 555.222 225.407C553.732 224.284 551.718 223.723 549.179 223.723C547.568 223.723 545.859 223.979 544.052 224.492C542.246 225.004 540.695 225.554 539.401 226.14V251.115C540.402 251.677 541.611 252.202 543.027 252.69C544.443 253.154 545.969 253.386 547.604 253.386Z" fill="#E89E1D"/>
<path d="M489.45 244.304V230.791C489.45 227.128 490.708 224.162 493.222 221.892C495.737 219.597 499.777 218.449 505.344 218.449C510.666 218.449 514.584 219.499 517.099 221.599C519.614 223.674 520.871 226.555 520.871 230.241V239.47H496.335V244.926C496.335 248.076 496.958 250.297 498.203 251.591C499.472 252.885 501.938 253.532 505.6 253.532C507.773 253.532 509.482 253.459 510.727 253.312C511.997 253.142 512.924 252.653 513.51 251.848C514.121 251.018 514.523 249.626 514.719 247.673H520.798C520.48 250.725 519.809 253.056 518.784 254.667C517.783 256.254 516.232 257.341 514.133 257.927C512.033 258.513 509.189 258.806 505.6 258.806C499.814 258.806 495.676 257.597 493.186 255.18C490.695 252.763 489.45 249.138 489.45 244.304ZM514.206 234.819V229.509C514.206 227.165 513.388 225.615 511.752 224.858C510.141 224.101 508.005 223.723 505.344 223.723C502.609 223.723 500.424 224.199 498.789 225.151C497.153 226.103 496.335 227.775 496.335 230.168V234.819H514.206Z" fill="#E89E1D"/>
<path d="M413.352 205.046H420.09L431.333 245.329L442.868 205.046H450.742L462.79 245.329L473.447 205.046H480.148L465.72 258H460.153L447.226 212.883L433.933 258H428.366L413.352 205.046Z" fill="#E89E1D"/>
<path d="M364.609 258.806C361.752 258.806 359.421 258.317 357.614 257.341C355.832 256.34 354.514 255.034 353.659 253.422C352.829 251.787 352.414 250.041 352.414 248.186C352.414 246.232 352.792 244.597 353.549 243.278C354.331 241.936 355.783 240.727 357.907 239.653C360.056 238.554 363.193 237.407 367.319 236.21C369.467 235.576 371.188 235.014 372.482 234.526C373.776 234.038 374.716 233.415 375.302 232.658C375.888 231.901 376.181 230.815 376.181 229.399C376.181 228.349 376.01 227.397 375.668 226.542C375.351 225.688 374.68 225.004 373.654 224.492C372.653 223.979 371.115 223.723 369.04 223.723C366.452 223.723 364.56 223.991 363.364 224.528C362.167 225.065 361.398 225.773 361.057 226.652C360.739 227.507 360.581 228.459 360.581 229.509V231.23H353.952V229.472C353.952 225.639 355.234 222.844 357.797 221.086C360.361 219.328 364.182 218.449 369.26 218.449C374.387 218.449 377.963 219.646 379.99 222.038C382.041 224.431 383.066 227.629 383.066 231.633V248.186C383.066 250.236 383.322 251.555 383.835 252.141C384.372 252.727 385.471 253.02 387.131 253.02L386.325 258.293H384.934C382.346 258.293 380.478 257.792 379.331 256.792C378.183 255.766 377.316 254.338 376.73 252.507C376.169 253.386 375.388 254.313 374.387 255.29C373.41 256.267 372.128 257.097 370.542 257.78C368.979 258.464 367.001 258.806 364.609 258.806ZM365.451 253.679C366.843 253.679 368.295 253.386 369.809 252.8C371.323 252.189 372.666 251.396 373.837 250.419C375.034 249.418 375.815 248.32 376.181 247.124V236.906C375.644 237.443 374.704 238.151 373.361 239.03C372.043 239.885 370.151 240.666 367.685 241.374C364.682 242.229 362.473 243.107 361.057 244.011C359.665 244.914 358.969 246.232 358.969 247.966C358.969 249.919 359.47 251.359 360.471 252.287C361.496 253.215 363.156 253.679 365.451 253.679Z" fill="#E89E1D"/>
<path d="M290.378 219.182H296.677L305.283 249.687L314.621 219.182H321.25L330.991 249.614L339.304 219.182H345.676L334.323 258H327.915L317.99 227.092L308.066 258H301.547L290.378 219.182Z" fill="#E89E1D"/>
<path d="M262.583 258.806C259.726 258.806 257.395 258.317 255.588 257.341C253.806 256.34 252.487 255.034 251.633 253.422C250.803 251.787 250.388 250.041 250.388 248.186C250.388 246.232 250.766 244.597 251.523 243.278C252.304 241.936 253.757 240.727 255.881 239.653C258.029 238.554 261.167 237.407 265.292 236.21C267.441 235.576 269.162 235.014 270.456 234.526C271.75 234.038 272.69 233.415 273.276 232.658C273.862 231.901 274.155 230.815 274.155 229.399C274.155 228.349 273.984 227.397 273.642 226.542C273.325 225.688 272.653 225.004 271.628 224.492C270.627 223.979 269.089 223.723 267.014 223.723C264.426 223.723 262.534 223.991 261.337 224.528C260.141 225.065 259.372 225.773 259.03 226.652C258.713 227.507 258.554 228.459 258.554 229.509V231.23H251.926V229.472C251.926 225.639 253.208 222.844 255.771 221.086C258.334 219.328 262.155 218.449 267.233 218.449C272.36 218.449 275.937 219.646 277.963 222.038C280.014 224.431 281.04 227.629 281.04 231.633V248.186C281.04 250.236 281.296 251.555 281.809 252.141C282.346 252.727 283.444 253.02 285.104 253.02L284.299 258.293H282.907C280.319 258.293 278.452 257.792 277.304 256.792C276.157 255.766 275.29 254.338 274.704 252.507C274.143 253.386 273.361 254.313 272.36 255.29C271.384 256.267 270.102 257.097 268.515 257.78C266.953 258.464 264.975 258.806 262.583 258.806ZM263.425 253.679C264.816 253.679 266.269 253.386 267.783 252.8C269.296 252.189 270.639 251.396 271.811 250.419C273.007 249.418 273.789 248.32 274.155 247.124V236.906C273.618 237.443 272.678 238.151 271.335 239.03C270.017 239.885 268.125 240.666 265.659 241.374C262.656 242.229 260.446 243.107 259.03 244.011C257.639 244.914 256.943 246.232 256.943 247.966C256.943 249.919 257.443 251.359 258.444 252.287C259.47 253.215 261.13 253.679 263.425 253.679Z" fill="#E89E1D"/>
<path d="M224.497 246.904V224.382H218.015V219.182H224.753L225.595 207.17H231.381V219.182H241.123V224.382H231.381V246.464C231.381 249.028 232.138 250.676 233.652 251.408C235.166 252.141 237.558 252.507 240.83 252.507H241.599L240.866 258.293H239.841C234.543 258.293 230.661 257.463 228.195 255.803C225.729 254.143 224.497 251.176 224.497 246.904Z" fill="#E89E1D"/>
<path d="M194.028 246.904V224.382H187.546V219.182H194.284L195.126 207.17H200.913V219.182H210.654V224.382H200.913V246.464C200.913 249.028 201.669 250.676 203.183 251.408C204.697 252.141 207.089 252.507 210.361 252.507H211.13L210.397 258.293H209.372C204.074 258.293 200.192 257.463 197.727 255.803C195.261 254.143 194.028 251.176 194.028 246.904Z" fill="#E89E1D"/>
<path d="M156.638 258.806C152.219 258.806 148.581 258.354 145.725 257.451C142.893 256.547 140.683 255.278 139.096 253.642C137.509 251.982 136.398 250.017 135.764 247.746C135.129 245.476 134.812 242.961 134.812 240.202V223.54C134.812 220.732 135.117 218.156 135.727 215.812C136.362 213.469 137.473 211.43 139.06 209.697C140.646 207.963 142.856 206.621 145.688 205.668C148.544 204.716 152.194 204.24 156.638 204.24C160.91 204.24 164.426 204.741 167.185 205.742C169.943 206.743 172.092 208.146 173.63 209.953C175.168 211.735 176.242 213.823 176.853 216.215C177.487 218.608 177.805 221.208 177.805 224.016V239.689C177.805 242.399 177.487 244.926 176.853 247.27C176.242 249.589 175.156 251.616 173.593 253.349C172.055 255.058 169.907 256.401 167.148 257.377C164.389 258.33 160.886 258.806 156.638 258.806ZM156.638 252.873C159.787 252.873 162.375 252.568 164.401 251.958C166.452 251.323 167.966 250.175 168.942 248.515C169.943 246.855 170.444 244.462 170.444 241.337V222.185C170.444 219.035 169.943 216.594 168.942 214.86C167.941 213.127 166.416 211.918 164.365 211.235C162.338 210.527 159.763 210.173 156.638 210.173C153.537 210.173 150.913 210.527 148.764 211.235C146.616 211.918 144.98 213.127 143.857 214.86C142.758 216.594 142.209 219.035 142.209 222.185V241.337C142.209 244.462 142.758 246.855 143.857 248.515C144.956 250.175 146.579 251.323 148.728 251.958C150.876 252.568 153.513 252.873 156.638 252.873Z" fill="#E89E1D"/>
</svg>
